<?xml version="1.0" encoding="UTF-8" standalone="no"?>
<!DOCTYPE svg PUBLIC "-//W3C//DTD SVG 1.1//EN" "http://www.w3.org/Graphics/SVG/1.1/DTD/svg11.dtd">
<svg width="100%" height="100%" viewBox="0 0 4318 1295" version="1.1" xmlns="http://www.w3.org/2000/svg" xmlns:xlink="http://www.w3.org/1999/xlink" xml:space="preserve" xmlns:serif="http://www.serif.com/" style="fill-rule:evenodd;clip-rule:evenodd;stroke-linejoin:round;stroke-miterlimit:2;">
    <g transform="matrix(1,0,0,1,1.35718,1.77886)">
        <rect x="80.184" y="107.692" width="238.785" height="102.894" style="fill:rgb(213,213,213);"/>
    </g>
    <g transform="matrix(1,0,0,1,120.802,316.457)">
        <rect x="80.184" y="107.692" width="238.785" height="102.894" style="fill:rgb(213,213,213);"/>
    </g>
    <g transform="matrix(1,0,0,1,120.534,940.446)">
        <rect x="80.184" y="107.692" width="238.785" height="102.894" style="fill:rgb(213,213,213);"/>
    </g>
    <g transform="matrix(1,0,0,1,437.091,940.446)">
        <rect x="80.184" y="107.692" width="238.785" height="102.894" style="fill:rgb(213,213,213);"/>
    </g>
    <g transform="matrix(1,0,0,1,753.647,940.446)">
        <rect x="80.184" y="107.692" width="238.785" height="102.894" style="fill:rgb(213,213,213);"/>
    </g>
    <g transform="matrix(1,0,0,1,1070.2,940.446)">
        <rect x="80.184" y="107.692" width="238.785" height="102.894" style="fill:rgb(213,213,213);"/>
    </g>
    <g transform="matrix(1,0,0,1,1386.76,940.446)">
        <rect x="80.184" y="107.692" width="238.785" height="102.894" style="fill:rgb(213,213,213);"/>
    </g>
    <g transform="matrix(1,0,0,1,1703.32,940.446)">
        <rect x="80.184" y="107.692" width="238.785" height="102.894" style="fill:rgb(213,213,213);"/>
    </g>
    <g transform="matrix(1,0,0,1,2019.87,940.446)">
        <rect x="80.184" y="107.692" width="238.785" height="102.894" style="fill:rgb(213,213,213);"/>
    </g>
    <g transform="matrix(1,0,0,1,2336.43,940.446)">
        <rect x="80.184" y="107.692" width="238.785" height="102.894" style="fill:rgb(213,213,213);"/>
    </g>
    <g transform="matrix(1,0,0,1,2652.99,940.446)">
        <rect x="80.184" y="107.692" width="238.785" height="102.894" style="fill:rgb(213,213,213);"/>
    </g>
    <g transform="matrix(1,0,0,1,2969.55,940.446)">
        <rect x="80.184" y="107.692" width="238.785" height="102.894" style="fill:rgb(213,213,213);"/>
    </g>
    <g transform="matrix(1,0,0,1,3286.1,940.446)">
        <rect x="80.184" y="107.692" width="238.785" height="102.894" style="fill:rgb(213,213,213);"/>
    </g>
    <g transform="matrix(1,0,0,1,3602.66,940.446)">
        <rect x="80.184" y="107.692" width="238.785" height="102.894" style="fill:rgb(213,213,213);"/>
    </g>
    <g transform="matrix(1,0,0,1,3919.22,940.446)">
        <rect x="80.184" y="107.692" width="238.785" height="102.894" style="fill:rgb(213,213,213);"/>
    </g>
    <g transform="matrix(1,0,0,1,1.14123,629.23)">
        <rect x="80.184" y="107.692" width="238.785" height="102.894" style="fill:rgb(213,213,213);"/>
    </g>
    <g transform="matrix(1,0,0,1,307.817,629.23)">
        <rect x="80.184" y="107.692" width="238.785" height="102.894" style="fill:rgb(213,213,213);"/>
    </g>
    <g transform="matrix(1,0,0,1,625.305,629.23)">
        <rect x="80.184" y="107.692" width="238.785" height="102.894" style="fill:rgb(213,213,213);"/>
    </g>
    <g transform="matrix(1,0,0,1,942.793,629.23)">
        <rect x="80.184" y="107.692" width="238.785" height="102.894" style="fill:rgb(213,213,213);"/>
    </g>
    <g transform="matrix(1,0,0,1,1260.28,629.23)">
        <rect x="80.184" y="107.692" width="238.785" height="102.894" style="fill:rgb(213,213,213);"/>
    </g>
    <g transform="matrix(1,0,0,1,1577.77,629.23)">
        <rect x="80.184" y="107.692" width="238.785" height="102.894" style="fill:rgb(213,213,213);"/>
    </g>
    <g transform="matrix(1,0,0,1,1895.26,629.23)">
        <rect x="80.184" y="107.692" width="238.785" height="102.894" style="fill:rgb(213,213,213);"/>
    </g>
    <g transform="matrix(1,0,0,1,2212.75,629.23)">
        <rect x="80.184" y="107.692" width="238.785" height="102.894" style="fill:rgb(213,213,213);"/>
    </g>
    <g transform="matrix(1,0,0,1,2530.24,629.23)">
        <rect x="80.184" y="107.692" width="238.785" height="102.894" style="fill:rgb(213,213,213);"/>
    </g>
    <g transform="matrix(1,0,0,1,2847.72,629.23)">
        <rect x="80.184" y="107.692" width="238.785" height="102.894" style="fill:rgb(213,213,213);"/>
    </g>
    <g transform="matrix(1,0,0,1,3165.21,629.23)">
        <rect x="80.184" y="107.692" width="238.785" height="102.894" style="fill:rgb(213,213,213);"/>
    </g>
    <g transform="matrix(1,0,0,1,3482.7,629.23)">
        <rect x="80.184" y="107.692" width="238.785" height="102.894" style="fill:rgb(213,213,213);"/>
    </g>
    <g transform="matrix(1,0,0,1,3800.19,629.23)">
        <rect x="80.184" y="107.692" width="238.785" height="102.894" style="fill:rgb(213,213,213);"/>
    </g>
    <g transform="matrix(1,0,0,1,437.434,316.457)">
        <rect x="80.184" y="107.692" width="238.785" height="102.894" style="fill:rgb(213,213,213);"/>
    </g>
    <g transform="matrix(1,0,0,1,754.065,316.457)">
        <rect x="80.184" y="107.692" width="238.785" height="102.894" style="fill:rgb(213,213,213);"/>
    </g>
    <g transform="matrix(1,0,0,1,1070.7,316.457)">
        <rect x="80.184" y="107.692" width="238.785" height="102.894" style="fill:rgb(213,213,213);"/>
    </g>
    <g transform="matrix(1,0,0,1,1387.33,316.457)">
        <rect x="80.184" y="107.692" width="238.785" height="102.894" style="fill:rgb(213,213,213);"/>
    </g>
    <g transform="matrix(1,0,0,1,1703.96,316.457)">
        <rect x="80.184" y="107.692" width="238.785" height="102.894" style="fill:rgb(213,213,213);"/>
    </g>
    <g transform="matrix(1,0,0,1,2020.59,316.457)">
        <rect x="80.184" y="107.692" width="238.785" height="102.894" style="fill:rgb(213,213,213);"/>
    </g>
    <g transform="matrix(1,0,0,1,2337.22,316.457)">
        <rect x="80.184" y="107.692" width="238.785" height="102.894" style="fill:rgb(213,213,213);"/>
    </g>
    <g transform="matrix(1,0,0,1,2653.85,316.457)">
        <rect x="80.184" y="107.692" width="238.785" height="102.894" style="fill:rgb(213,213,213);"/>
    </g>
    <g transform="matrix(1,0,0,1,2970.49,316.457)">
        <rect x="80.184" y="107.692" width="238.785" height="102.894" style="fill:rgb(213,213,213);"/>
    </g>
    <g transform="matrix(1,0,0,1,3287.12,316.457)">
        <rect x="80.184" y="107.692" width="238.785" height="102.894" style="fill:rgb(213,213,213);"/>
    </g>
    <g transform="matrix(1,0,0,1,3603.75,316.457)">
        <rect x="80.184" y="107.692" width="238.785" height="102.894" style="fill:rgb(213,213,213);"/>
    </g>
    <g transform="matrix(1,0,0,1,3920.38,316.457)">
        <rect x="80.184" y="107.692" width="238.785" height="102.894" style="fill:rgb(213,213,213);"/>
    </g>
    <g transform="matrix(1,0,0,1,317.991,1.77886)">
        <rect x="80.184" y="107.692" width="238.785" height="102.894" style="fill:rgb(213,213,213);"/>
    </g>
    <g transform="matrix(1,0,0,1,634.625,1.77886)">
        <rect x="80.184" y="107.692" width="238.785" height="102.894" style="fill:rgb(213,213,213);"/>
    </g>
    <g transform="matrix(1,0,0,1,951.259,1.77886)">
        <rect x="80.184" y="107.692" width="238.785" height="102.894" style="fill:rgb(213,213,213);"/>
    </g>
    <g transform="matrix(1,0,0,1,1267.89,1.77886)">
        <rect x="80.184" y="107.692" width="238.785" height="102.894" style="fill:rgb(213,213,213);"/>
    </g>
    <g transform="matrix(1,0,0,1,1584.53,1.77886)">
        <rect x="80.184" y="107.692" width="238.785" height="102.894" style="fill:rgb(213,213,213);"/>
    </g>
    <g transform="matrix(1,0,0,1,1901.16,1.77886)">
        <rect x="80.184" y="107.692" width="238.785" height="102.894" style="fill:rgb(213,213,213);"/>
    </g>
    <g transform="matrix(1,0,0,1,2217.79,1.77886)">
        <rect x="80.184" y="107.692" width="238.785" height="102.894" style="fill:rgb(213,213,213);"/>
    </g>
    <g transform="matrix(1,0,0,1,2534.43,1.77886)">
        <rect x="80.184" y="107.692" width="238.785" height="102.894" style="fill:rgb(213,213,213);"/>
    </g>
    <g transform="matrix(1,0,0,1,2851.06,1.77886)">
        <rect x="80.184" y="107.692" width="238.785" height="102.894" style="fill:rgb(213,213,213);"/>
    </g>
    <g transform="matrix(1,0,0,1,3167.7,1.77886)">
        <rect x="80.184" y="107.692" width="238.785" height="102.894" style="fill:rgb(213,213,213);"/>
    </g>
    <g transform="matrix(1,0,0,1,3484.33,1.77886)">
        <rect x="80.184" y="107.692" width="238.785" height="102.894" style="fill:rgb(213,213,213);"/>
    </g>
    <g transform="matrix(1,0,0,1,3800.96,1.77886)">
        <rect x="80.184" y="107.692" width="238.785" height="102.894" style="fill:rgb(213,213,213);"/>
    </g>
    <g transform="matrix(1,0,0,1,9.79349,-15.2462)">
        <g transform="matrix(70.3158,0,0,70.3158,426.262,293.732)">
        </g>
        <text x="384.478px" y="293.732px" style="font-family:'ArialRoundedMTBold', 'Arial Rounded MT Bold', sans-serif;font-size:70.316px;">1</text>
    </g>
    <g transform="matrix(1,0,0,1,327.368,-15.2462)">
        <g transform="matrix(70.3158,0,0,70.3158,426.262,293.732)">
        </g>
        <text x="384.478px" y="293.732px" style="font-family:'ArialRoundedMTBold', 'Arial Rounded MT Bold', sans-serif;font-size:70.316px;">2</text>
    </g>
    <g transform="matrix(1,0,0,1,640.453,-15.2462)">
        <g transform="matrix(70.3158,0,0,70.3158,426.262,293.732)">
        </g>
        <text x="384.478px" y="293.732px" style="font-family:'ArialRoundedMTBold', 'Arial Rounded MT Bold', sans-serif;font-size:70.316px;">3</text>
    </g>
    <g transform="matrix(1,0,0,1,962.236,-15.2462)">
        <g transform="matrix(70.3158,0,0,70.3158,426.262,293.732)">
        </g>
        <text x="384.478px" y="293.732px" style="font-family:'ArialRoundedMTBold', 'Arial Rounded MT Bold', sans-serif;font-size:70.316px;">4</text>
    </g>
    <g transform="matrix(1,0,0,1,1273.72,-15.2462)">
        <g transform="matrix(70.3158,0,0,70.3158,426.262,293.732)">
        </g>
        <text x="384.478px" y="293.732px" style="font-family:'ArialRoundedMTBold', 'Arial Rounded MT Bold', sans-serif;font-size:70.316px;">5</text>
    </g>
    <g transform="matrix(1,0,0,1,1593.96,-15.2462)">
        <g transform="matrix(70.3158,0,0,70.3158,426.262,293.732)">
        </g>
        <text x="384.478px" y="293.732px" style="font-family:'ArialRoundedMTBold', 'Arial Rounded MT Bold', sans-serif;font-size:70.316px;">6</text>
    </g>
    <g transform="matrix(1,0,0,1,1917.19,-15.2462)">
        <g transform="matrix(70.3158,0,0,70.3158,426.262,293.732)">
        </g>
        <text x="384.478px" y="293.732px" style="font-family:'ArialRoundedMTBold', 'Arial Rounded MT Bold', sans-serif;font-size:70.316px;">7</text>
    </g>
    <g transform="matrix(1,0,0,1,2236.88,-15.2462)">
        <g transform="matrix(70.3158,0,0,70.3158,426.262,293.732)">
        </g>
        <text x="384.478px" y="293.732px" style="font-family:'ArialRoundedMTBold', 'Arial Rounded MT Bold', sans-serif;font-size:70.316px;">8</text>
    </g>
    <g transform="matrix(1,0,0,1,2544.27,-15.2462)">
        <g transform="matrix(70.3158,0,0,70.3158,426.262,293.732)">
        </g>
        <text x="384.478px" y="293.732px" style="font-family:'ArialRoundedMTBold', 'Arial Rounded MT Bold', sans-serif;font-size:70.316px;">9</text>
    </g>
    <g transform="matrix(1,0,0,1,2990.75,289.212)">
        <g transform="matrix(70.3158,0,0,70.3158,468.046,293.732)">
        </g>
        <text x="384.478px" y="293.732px" style="font-family:'ArialRoundedMTBold', 'Arial Rounded MT Bold', sans-serif;font-size:70.316px;">18</text>
    </g>
    <g transform="matrix(1,0,0,1,2678.04,289.212)">
        <g transform="matrix(70.3158,0,0,70.3158,468.046,293.732)">
        </g>
        <text x="384.478px" y="293.732px" style="font-family:'ArialRoundedMTBold', 'Arial Rounded MT Bold', sans-serif;font-size:70.316px;">17</text>
    </g>
    <g transform="matrix(1,0,0,1,2352.6,289.212)">
        <g transform="matrix(70.3158,0,0,70.3158,468.046,293.732)">
        </g>
        <text x="384.478px" y="293.732px" style="font-family:'ArialRoundedMTBold', 'Arial Rounded MT Bold', sans-serif;font-size:70.316px;">16</text>
    </g>
    <g transform="matrix(1,0,0,1,2049.39,289.212)">
        <g transform="matrix(70.3158,0,0,70.3158,468.046,293.732)">
        </g>
        <text x="384.478px" y="293.732px" style="font-family:'ArialRoundedMTBold', 'Arial Rounded MT Bold', sans-serif;font-size:70.316px;">15</text>
    </g>
    <g transform="matrix(1,0,0,1,1726.86,289.212)">
        <g transform="matrix(70.3158,0,0,70.3158,468.046,293.732)">
        </g>
        <text x="384.478px" y="293.732px" style="font-family:'ArialRoundedMTBold', 'Arial Rounded MT Bold', sans-serif;font-size:70.316px;">14</text>
    </g>
    <g transform="matrix(1,0,0,1,1417.39,289.212)">
        <g transform="matrix(70.3158,0,0,70.3158,468.046,293.732)">
        </g>
        <text x="384.478px" y="293.732px" style="font-family:'ArialRoundedMTBold', 'Arial Rounded MT Bold', sans-serif;font-size:70.316px;">13</text>
    </g>
    <g transform="matrix(1,0,0,1,1090.16,289.212)">
        <g transform="matrix(70.3158,0,0,70.3158,468.046,293.732)">
        </g>
        <text x="384.478px" y="293.732px" style="font-family:'ArialRoundedMTBold', 'Arial Rounded MT Bold', sans-serif;font-size:70.316px;">12</text>
    </g>
    <g transform="matrix(1,0,0,1,766.002,289.212)">
        <g transform="matrix(70.3158,0,0,70.3158,468.046,293.732)">
        </g>
        <text x="384.478px" y="293.732px" style="font-family:'ArialRoundedMTBold', 'Arial Rounded MT Bold', sans-serif;font-size:70.316px;">11</text>
    </g>
    <g transform="matrix(1,0,0,1,461.858,289.212)">
        <g transform="matrix(70.3158,0,0,70.3158,468.046,293.732)">
        </g>
        <text x="384.478px" y="293.732px" style="font-family:'ArialRoundedMTBold', 'Arial Rounded MT Bold', sans-serif;font-size:70.316px;">10</text>
    </g>
    <g transform="matrix(1,0,0,1,333.344,605.485)">
        <g transform="matrix(70.3158,0,0,70.3158,468.046,293.732)">
        </g>
        <text x="384.478px" y="293.732px" style="font-family:'ArialRoundedMTBold', 'Arial Rounded MT Bold', sans-serif;font-size:70.316px;">19</text>
    </g>
    <g transform="matrix(1,0,0,1,645.213,605.485)">
        <g transform="matrix(70.3158,0,0,70.3158,468.046,293.732)">
        </g>
        <text x="384.478px" y="293.732px" style="font-family:'ArialRoundedMTBold', 'Arial Rounded MT Bold', sans-serif;font-size:70.316px;">20</text>
    </g>
    <g transform="matrix(1,0,0,1,964.721,605.485)">
        <g transform="matrix(70.3158,0,0,70.3158,468.046,293.732)">
        </g>
        <text x="384.478px" y="293.732px" style="font-family:'ArialRoundedMTBold', 'Arial Rounded MT Bold', sans-serif;font-size:70.316px;">21</text>
    </g>
    <g transform="matrix(1,0,0,1,1293.56,605.485)">
        <g transform="matrix(70.3158,0,0,70.3158,468.046,293.732)">
        </g>
        <text x="384.478px" y="293.732px" style="font-family:'ArialRoundedMTBold', 'Arial Rounded MT Bold', sans-serif;font-size:70.316px;">22</text>
    </g>
    <g transform="matrix(1,0,0,1,1604.26,605.485)">
        <g transform="matrix(70.3158,0,0,70.3158,468.046,293.732)">
        </g>
        <text x="384.478px" y="293.732px" style="font-family:'ArialRoundedMTBold', 'Arial Rounded MT Bold', sans-serif;font-size:70.316px;">23</text>
    </g>
    <g transform="matrix(1,0,0,1,1927.32,605.485)">
        <g transform="matrix(70.3158,0,0,70.3158,468.046,293.732)">
        </g>
        <text x="384.478px" y="293.732px" style="font-family:'ArialRoundedMTBold', 'Arial Rounded MT Bold', sans-serif;font-size:70.316px;">24</text>
    </g>
    <g transform="matrix(1,0,0,1,2244.16,605.485)">
        <g transform="matrix(70.3158,0,0,70.3158,468.046,293.732)">
        </g>
        <text x="384.478px" y="293.732px" style="font-family:'ArialRoundedMTBold', 'Arial Rounded MT Bold', sans-serif;font-size:70.316px;">25</text>
    </g>
    <g transform="matrix(1,0,0,1,2544.58,605.485)">
        <g transform="matrix(70.3158,0,0,70.3158,468.046,293.732)">
        </g>
        <text x="384.478px" y="293.732px" style="font-family:'ArialRoundedMTBold', 'Arial Rounded MT Bold', sans-serif;font-size:70.316px;">26</text>
    </g>
    <g transform="matrix(1,0,0,1,2864.72,605.485)">
        <g transform="matrix(70.3158,0,0,70.3158,468.046,293.732)">
        </g>
        <text x="384.478px" y="293.732px" style="font-family:'ArialRoundedMTBold', 'Arial Rounded MT Bold', sans-serif;font-size:70.316px;">27</text>
    </g>
    <g transform="matrix(1,0,0,1,1718.3,922.214)">
        <g transform="matrix(70.3158,0,0,70.3158,468.046,293.732)">
        </g>
        <text x="384.478px" y="293.732px" style="font-family:'ArialRoundedMTBold', 'Arial Rounded MT Bold', sans-serif;font-size:70.316px;">32</text>
    </g>
    <g transform="matrix(1,0,0,1,1412.61,922.214)">
        <g transform="matrix(70.3158,0,0,70.3158,468.046,293.732)">
        </g>
        <text x="384.478px" y="293.732px" style="font-family:'ArialRoundedMTBold', 'Arial Rounded MT Bold', sans-serif;font-size:70.316px;">31</text>
    </g>
    <g transform="matrix(1,0,0,1,1104.23,922.214)">
        <g transform="matrix(70.3158,0,0,70.3158,468.046,293.732)">
        </g>
        <text x="384.478px" y="293.732px" style="font-family:'ArialRoundedMTBold', 'Arial Rounded MT Bold', sans-serif;font-size:70.316px;">30</text>
    </g>
    <g transform="matrix(1,0,0,1,782.853,922.214)">
        <g transform="matrix(70.3158,0,0,70.3158,468.046,293.732)">
        </g>
        <text x="384.478px" y="293.732px" style="font-family:'ArialRoundedMTBold', 'Arial Rounded MT Bold', sans-serif;font-size:70.316px;">29</text>
    </g>
    <g transform="matrix(1,0,0,1,449.978,922.214)">
        <g transform="matrix(70.3158,0,0,70.3158,468.046,293.732)">
        </g>
        <text x="384.478px" y="293.732px" style="font-family:'ArialRoundedMTBold', 'Arial Rounded MT Bold', sans-serif;font-size:70.316px;">28</text>
    </g>
</svg>
