<?xml version="1.0" encoding="utf-8"?>
<!-- Generator: Adobe Illustrator 16.0.0, SVG Export Plug-In . SVG Version: 6.00 Build 0)  -->
<!DOCTYPE svg PUBLIC "-//W3C//DTD SVG 1.1//EN" "http://www.w3.org/Graphics/SVG/1.1/DTD/svg11.dtd">
<svg version="1.1" id="Layer_1" xmlns="http://www.w3.org/2000/svg" xmlns:xlink="http://www.w3.org/1999/xlink" x="0px" y="0px"
	 width="1012px" height="236.438px" viewBox="0 176.781 1012 236.438" enable-background="new 0 176.781 1012 236.438"
	 xml:space="preserve">
<title>banner</title>
<rect y="176.781" width="580.623" height="236.438"/>
<path d="M634.701,252.663c5.309,5.533,12.65,8.65,20.317,8.625c7.477,0,11.117-3.546,11.117-7.188c0-4.792-5.559-6.421-12.938-8.146
	c-10.446-2.396-23.96-5.271-23.96-19.552c0-10.638,9.201-19.168,24.248-19.168c9.144-0.346,18.067,2.847,24.918,8.913l-7.571,9.968
	c-5.023-4.521-11.548-7.014-18.306-6.997c-6.135,0-9.394,2.684-9.394,6.517c0,4.313,5.367,5.654,12.747,7.38
	c10.543,2.396,23.96,5.559,23.96,19.743c0,11.693-8.338,20.51-25.589,20.51c-12.268,0-21.085-4.121-27.027-10.159L634.701,252.663z"
	/>
<path d="M685.88,248.877c-0.079-13.523,10.819-24.551,24.343-24.63c13.524-0.08,24.553,10.819,24.631,24.343
	c0.079,13.524-10.818,24.551-24.343,24.631c-0.063,0-0.128,0-0.19,0c-12.931,0.565-23.869-9.457-24.437-22.386
	C685.855,250.183,685.854,249.529,685.88,248.877z M722.203,248.877c0-7.188-4.313-13.417-11.979-13.417
	s-11.789,6.229-11.789,13.417s4.219,13.514,11.789,13.514C717.795,262.391,722.203,256.161,722.203,248.877z"/>
<path d="M746.521,236.418h-7.666v-10.639h7.666v-2.396c0-10.063,6.519-16.101,15.622-16.101c3.049-0.052,6.066,0.604,8.817,1.917
	l-2.396,8.625c-1.197-0.674-2.558-1.006-3.931-0.958c-3.45,0-5.751,2.396-5.751,6.709v2.396h9.201v10.638h-9.393v35.461H746.52
	v-35.652H746.521z"/>
<path d="M777.671,260.569v-24.151h-7.667v-10.639h7.667v-12.651h12.269v12.651h9.296v10.639h-9.393v20.893
	c-0.347,2.437,1.349,4.693,3.785,5.04c0.144,0.02,0.287,0.034,0.432,0.04c1.519,0.046,3.006-0.427,4.218-1.342l2.588,9.2
	c-2.914,2.19-6.524,3.246-10.159,2.971C782.199,273.22,777.671,268.812,777.671,260.569z"/>
<path d="M838.457,240.539l-9.775,31.531h-13.033l-14.018-46.291h12.651l8.625,31.148l10.159-31.148h10.829l10.159,31.148
	l8.625-31.148h12.651l-14.089,46.291h-12.938L838.457,240.539z"/>
<path d="M909.092,267.278c-3.805,4-9.147,6.165-14.664,5.942c-7.379,0-16.101-4.984-16.101-15.335
	c0-10.83,8.722-14.759,16.101-14.759c5.481-0.358,10.844,1.709,14.664,5.655v-6.421c0-4.792-4.024-7.763-10.159-7.763
	c-5.042,0.004-9.886,1.962-13.514,5.463l-4.601-8.146c5.641-4.778,12.832-7.334,20.223-7.188c10.543,0,20.223,4.217,20.223,17.539
	v29.806h-12.172V267.278L909.092,267.278z M909.092,255.298c-2.476-2.761-6.074-4.243-9.774-4.025c-4.792,0-8.723,2.396-8.723,6.997
	c0,4.6,3.931,6.805,8.723,6.805c3.7,0.217,7.3-1.265,9.774-4.025V255.298L909.092,255.298z"/>
<path d="M933.411,225.779h11.979v6.326c3.611-4.491,9-7.186,14.761-7.379v11.979c-5.43-1.28-11.118,0.567-14.761,4.792v30.573
	h-11.979V225.779z"/>
<path d="M988.831,224.629c13.801,0,23.192,10.351,23.192,25.494v2.684h-34.406c0.767,5.846,5.463,10.734,13.322,10.734
	c4.539-0.001,8.927-1.634,12.362-4.6l5.367,7.858c-5.401,4.39-12.213,6.672-19.168,6.421c-14.089,0-24.728-9.584-24.728-24.343
	c-0.388-13.002,9.84-23.856,22.843-24.243C988.021,224.622,988.426,224.621,988.831,224.629z M977.426,244.564h22.811
	c-0.238-5.91-5.224-10.508-11.135-10.269c-0.09,0.003-0.181,0.008-0.271,0.014C982.902,234.138,977.883,238.651,977.426,244.564z"/>
<path d="M631.515,303.984h45.236v11.692h-31.627v13.896h30.956v11.739h-30.836v26.597h-13.729V303.984z"/>
<path d="M713.865,363.118c-3.806,4-9.148,6.165-14.663,5.941c-7.38,0-16.103-4.982-16.103-15.334c0-10.829,8.723-14.76,16.103-14.76
	c5.479-0.357,10.842,1.709,14.663,5.654v-6.42c0-4.792-4.025-7.763-10.159-7.763c-5.042,0.003-9.886,1.961-13.514,5.463
	l-4.601-8.146c5.642-4.779,12.831-7.335,20.223-7.188c10.543,0,20.223,4.217,20.223,17.539v29.806h-12.172V363.118L713.865,363.118z
	 M713.865,351.139c-2.477-2.761-6.074-4.242-9.775-4.024c-4.792,0-8.722,2.396-8.722,6.996c0,4.6,3.93,6.805,8.722,6.805
	c3.701,0.218,7.3-1.265,9.775-4.025V351.139z"/>
<path d="M736.938,308.394c0-3.97,3.22-7.188,7.188-7.188s7.188,3.219,7.188,7.188c0,3.97-3.219,7.188-7.188,7.188
	C740.189,315.505,737.016,312.331,736.938,308.394z M738.185,321.619h12.173v46.291h-12.173V321.619z"/>
<path d="M762.36,321.619h12.172v6.326c3.609-4.491,9-7.188,14.759-7.38v11.979c-5.428-1.281-11.118,0.566-14.759,4.792v30.572
	H762.36V321.619z"/>
<g>
	<path fill="#FFFFFF" d="M157.601,333.418v26.399H51.802v-21l53.999-50.999c12.4-11.8,14.6-19,14.6-25.799
		c0-11-7.6-17.4-22.399-17.4c-12,0-22.2,4.6-29,14l-23.6-15.2c10.8-15.799,30.399-26,55.599-26c31.199,0,51.999,16,51.999,41.399
		c0,13.6-3.8,26-23.399,44.199l-32.2,30.4H157.601z"/>
	<path fill="#FFFFFF" d="M170.602,289.818c0-46.199,25.6-72.399,59.999-72.399c34.6,0,59.999,26.2,59.999,72.399
		s-25.399,72.399-59.999,72.399C196.201,362.218,170.602,336.018,170.602,289.818z M258,289.818c0-31.799-11.2-44.999-27.4-44.999
		c-16,0-27.199,13.2-27.199,44.999c0,31.8,11.2,44.999,27.199,44.999C246.8,334.817,258,321.618,258,289.818z"/>
	<path fill="#FFFFFF" d="M409.798,333.418v26.399H304v-21l53.999-50.999c12.4-11.8,14.6-19,14.6-25.799c0-11-7.6-17.4-22.399-17.4
		c-12,0-22.2,4.6-29,14l-23.6-15.2c10.8-15.799,30.399-26,55.599-26c31.199,0,51.999,16,51.999,41.399c0,13.6-3.8,26-23.399,44.199
		l-32.2,30.4H409.798z"/>
	<path fill="#FFFFFF" d="M526.597,317.018c0,23.601-18.2,45.2-57.999,45.2c-19.6,0-39.799-5.4-53.399-15l12.6-24.8
		c10.6,8,25.399,12.6,40,12.6c16.2,0,26.199-6.6,26.199-18c0-10.6-7.8-17.199-26.199-17.199h-14.8v-21.4l28.799-32.599h-59.599v-26
		h97.999v21l-31.6,36C513.797,280.818,526.597,296.418,526.597,317.018z"/>
</g>
</svg>
