<svg xmlns="http://www.w3.org/2000/svg" viewBox="0 0 422.37 98.68"><defs><style>.a{fill:#221f20}.b{fill:#fff}</style></defs><title>banner</title><path class="a" d="M0 0h242.33v98.68H0z"/><path class="b" d="M17.45 68.06l20.74-17c7.74-6.41 10.77-9.79 10.77-15s-3.47-8.1-8.37-8.1-8.1 2.67-12.73 8.37l-9.61-7.66c6.14-8.37 12.1-12.91 23.23-12.91 12.91 0 21.45 7.57 21.45 19.22v.18c0 10.41-5.34 15.58-16.38 24.12L36.4 67.11h27.17v11.84H17.45V68.06zM73.35 47.95v-.18c0-18.07 11.21-32.22 27.77-32.22s27.59 14 27.59 32v.18c0 18.07-11.13 32.22-27.77 32.22s-27.59-13.94-27.59-32zm41.3 0v-.18c0-11.3-5.52-19.85-13.71-19.85S87.41 36.2 87.41 47.59v.18c0 11.39 5.43 19.85 13.71 19.85s13.53-8.37 13.53-19.67zM148.92 30.06l-10.86 2.67-2.85-11.21 17.89-5.34h9.35v62.75h-13.53V30.06zM182.83 73.31c-4.54-4.54-7.39-11.21-7.39-23.59v-.18c0-19.22 8.72-34 27.33-34a28.86 28.86 0 0 1 19.49 6.85l-7.21 10.59c-4.09-3.12-7.39-5-12.73-5-7.74 0-11.66 6.23-12.55 14.42a21.55 21.55 0 0 1 12.91-4c12.37 0 21.9 6.85 21.9 19.85v.18c0 12.73-10.24 21.54-23.76 21.54-8.11.02-13.63-2.3-17.99-6.66zm28.13-14.24v-.18c0-5.25-4.09-9.08-10.86-9.08s-10.68 3.74-10.68 9v.18c0 5.25 4.09 9.26 10.86 9.26s10.68-3.84 10.68-9.18z"/><path class="a" d="M264.9 31.67a11.7 11.7 0 0 0 8.48 3.6c3.12 0 4.64-1.48 4.64-3 0-2-2.32-2.68-5.4-3.4-4.36-1-10-2.2-10-8.16 0-4.44 3.84-8 10.12-8a14.84 14.84 0 0 1 10.4 3.72l-3.16 4.16a11.38 11.38 0 0 0-7.64-2.92c-2.56 0-3.92 1.12-3.92 2.72 0 1.8 2.24 2.36 5.32 3.08 4.4 1 10 2.32 10 8.24 0 4.88-3.48 8.56-10.68 8.56-5.12 0-8.8-1.72-11.28-4.24zM286.26 30.09a10.22 10.22 0 1 1 10.2 10.16 9.78 9.78 0 0 1-10.2-10.16zm15.16 0c0-3-1.8-5.6-5-5.6s-4.92 2.6-4.92 5.6 1.76 5.64 4.92 5.64 5-2.6 5-5.64zM311.57 24.89h-3.2v-4.44h3.2v-1c0-4.2 2.72-6.72 6.52-6.72a8.22 8.22 0 0 1 3.68.8l-1 3.6a3.12 3.12 0 0 0-1.64-.4c-1.44 0-2.4 1-2.4 2.8v1h3.84v4.44h-3.92v14.8h-5.08V24.89zM324.57 34.97V24.89h-3.2v-4.44h3.2v-5.28h5.12v5.28h3.88v4.44h-3.92v8.72a1.86 1.86 0 0 0 1.76 2.12 2.78 2.78 0 0 0 1.76-.56l1.08 3.84a6.27 6.27 0 0 1-4.24 1.24c-3.55 0-5.44-1.84-5.44-5.28zM349.94 26.61l-4.08 13.16h-5.44l-5.85-19.32h5.28l3.6 13 4.24-13h4.52l4.24 13 3.6-13h5.28l-5.88 19.32h-5.4zM379.42 37.77a8 8 0 0 1-6.12 2.48c-3.08 0-6.72-2.08-6.72-6.4 0-4.52 3.64-6.16 6.72-6.16a7.81 7.81 0 0 1 6.12 2.36v-2.68c0-2-1.68-3.24-4.24-3.24a8.13 8.13 0 0 0-5.64 2.28l-1.92-3.4a12.67 12.67 0 0 1 8.44-3c4.4 0 8.44 1.76 8.44 7.32v12.44h-5.08v-2zm0-5a5.08 5.08 0 0 0-4.08-1.68c-2 0-3.64 1-3.64 2.92s1.64 2.84 3.64 2.84a5.08 5.08 0 0 0 4.08-1.68v-2.4zM389.57 20.45h5v2.64a8.26 8.26 0 0 1 6.16-3.08v5a6.24 6.24 0 0 0-6.16 2v12.76h-5V20.45zM412.7 19.97c5.76 0 9.68 4.32 9.68 10.64v1.12h-14.36c.32 2.44 2.28 4.48 5.56 4.48a7.9 7.9 0 0 0 5.16-1.92l2.24 3.28a12 12 0 0 1-8 2.68c-5.88 0-10.32-4-10.32-10.16a9.83 9.83 0 0 1 10.04-10.12zm-4.76 8.32h9.52a4.47 4.47 0 0 0-4.76-4.28 4.64 4.64 0 0 0-4.76 4.28zM263.57 53.09h18.88v4.88h-13.2v5.8h12.92v4.9H269.3v11.1h-5.73V53.09zM297.94 77.77a8 8 0 0 1-6.12 2.48c-3.08 0-6.72-2.08-6.72-6.4 0-4.52 3.64-6.16 6.72-6.16a7.81 7.81 0 0 1 6.12 2.36v-2.68c0-2-1.68-3.24-4.24-3.24a8.13 8.13 0 0 0-5.64 2.28l-1.92-3.4a12.67 12.67 0 0 1 8.44-3c4.4 0 8.44 1.76 8.44 7.32v12.44h-5.08v-2zm0-5a5.08 5.08 0 0 0-4.08-1.68c-2 0-3.64 1-3.64 2.92s1.64 2.84 3.64 2.84a5.08 5.08 0 0 0 4.08-1.68v-2.4zM307.57 54.93a3 3 0 1 1 3 3 3.06 3.06 0 0 1-3-3zm.52 5.52h5.08v19.32h-5.08V60.45zM318.18 60.45h5.08v2.64a8.26 8.26 0 0 1 6.16-3.08v5a6.24 6.24 0 0 0-6.16 2v12.76h-5.08V60.45z"/></svg>