<svg xmlns="http://www.w3.org/2000/svg" width="1012" height="236.438" viewBox="0 176.781 1012 236.438"><title>banner</title><path d="M0 176.781h580.623v236.438H0zM634.701 252.663a28.029 28.029 0 0 0 20.317 8.625c7.477 0 11.117-3.546 11.117-7.188 0-4.792-5.559-6.421-12.938-8.146-10.446-2.396-23.96-5.271-23.96-19.552 0-10.638 9.201-19.168 24.248-19.168a35.559 35.559 0 0 1 24.918 8.913l-7.571 9.968a27.262 27.262 0 0 0-18.306-6.997c-6.135 0-9.394 2.684-9.394 6.517 0 4.313 5.367 5.654 12.747 7.38 10.543 2.396 23.96 5.559 23.96 19.743 0 11.693-8.338 20.51-25.589 20.51-12.268 0-21.085-4.121-27.027-10.159l7.478-10.446zM685.88 248.877c-.079-13.523 10.819-24.551 24.343-24.63 13.524-.08 24.553 10.819 24.631 24.343.079 13.524-10.818 24.551-24.343 24.631h-.19c-12.931.565-23.869-9.457-24.437-22.386a23.245 23.245 0 0 1-.004-1.958zm36.323 0c0-7.188-4.313-13.417-11.979-13.417s-11.789 6.229-11.789 13.417 4.219 13.514 11.789 13.514c7.571 0 11.979-6.23 11.979-13.514zM746.521 236.418h-7.666v-10.639h7.666v-2.396c0-10.063 6.519-16.101 15.622-16.101a19.686 19.686 0 0 1 8.817 1.917l-2.396 8.625a7.482 7.482 0 0 0-3.931-.958c-3.45 0-5.751 2.396-5.751 6.709v2.396h9.201v10.638h-9.393v35.461h-12.17v-35.652h.001zM777.671 260.569v-24.151h-7.667v-10.639h7.667v-12.651h12.269v12.651h9.296v10.639h-9.393v20.893a4.457 4.457 0 0 0 4.217 5.08 6.663 6.663 0 0 0 4.218-1.342l2.588 9.2a15.022 15.022 0 0 1-10.159 2.971c-8.508 0-13.036-4.408-13.036-12.651zM838.457 240.539l-9.775 31.531h-13.033l-14.018-46.291h12.651l8.625 31.148 10.159-31.148h10.829l10.159 31.148 8.625-31.148h12.651l-14.089 46.291h-12.938l-9.846-31.531zM909.092 267.278a19.167 19.167 0 0 1-14.664 5.942c-7.379 0-16.101-4.984-16.101-15.335 0-10.83 8.722-14.759 16.101-14.759a18.712 18.712 0 0 1 14.664 5.655v-6.421c0-4.792-4.024-7.763-10.159-7.763a19.483 19.483 0 0 0-13.514 5.463l-4.601-8.146a30.362 30.362 0 0 1 20.223-7.188c10.543 0 20.223 4.217 20.223 17.539v29.806h-12.172v-4.793zm0-11.98a12.168 12.168 0 0 0-9.774-4.025c-4.792 0-8.723 2.396-8.723 6.997 0 4.6 3.931 6.805 8.723 6.805 3.7.217 7.3-1.265 9.774-4.025v-5.752zM933.411 225.779h11.979v6.326a19.79 19.79 0 0 1 14.761-7.379v11.979a14.956 14.956 0 0 0-14.761 4.792v30.573h-11.979v-46.291zM988.831 224.629c13.801 0 23.192 10.351 23.192 25.494v2.684h-34.406c.767 5.846 5.463 10.734 13.322 10.734a18.923 18.923 0 0 0 12.362-4.6l5.367 7.858a28.749 28.749 0 0 1-19.168 6.421c-14.089 0-24.728-9.584-24.728-24.343-.388-13.002 9.84-23.856 22.843-24.243.406-.012.811-.013 1.216-.005zm-11.405 19.935h22.811c-.238-5.91-5.224-10.508-11.135-10.269-.09.003-.181.008-.271.014a11.117 11.117 0 0 0-11.405 10.255zM631.515 303.984h45.236v11.692h-31.627v13.896h30.956v11.739h-30.836v26.597h-13.729v-63.924zM713.865 363.118a19.165 19.165 0 0 1-14.663 5.941c-7.38 0-16.103-4.982-16.103-15.334 0-10.829 8.723-14.76 16.103-14.76a18.72 18.72 0 0 1 14.663 5.654v-6.42c0-4.792-4.025-7.763-10.159-7.763a19.474 19.474 0 0 0-13.514 5.463l-4.601-8.146a30.352 30.352 0 0 1 20.223-7.188c10.543 0 20.223 4.217 20.223 17.539v29.806h-12.172v-4.792zm0-11.979a12.17 12.17 0 0 0-9.775-4.024c-4.792 0-8.722 2.396-8.722 6.996 0 4.6 3.93 6.805 8.722 6.805a12.17 12.17 0 0 0 9.775-4.025v-5.752zM736.938 308.394a7.19 7.19 0 0 1 14.376 0 7.188 7.188 0 0 1-7.188 7.188 7.334 7.334 0 0 1-7.188-7.188zm1.247 13.225h12.173v46.291h-12.173v-46.291zM762.36 321.619h12.172v6.326c3.609-4.491 9-7.188 14.759-7.38v11.979a14.949 14.949 0 0 0-14.759 4.792v30.572H762.36v-46.289z"/><g fill="#FFF"><path d="M158.713 337.777v29.04H42.333v-23.101l59.4-56.1c13.64-12.98 16.06-20.9 16.06-28.38 0-12.1-8.36-19.14-24.64-19.14-13.2 0-24.42 5.06-31.9 15.4l-25.96-16.72c11.88-17.38 33.44-28.6 61.16-28.6 34.32 0 57.2 17.6 57.2 45.54 0 14.96-4.18 28.6-25.74 48.62l-35.42 33.44h66.22zM173.012 289.817c0-50.82 28.16-79.64 66-79.64 38.06 0 66 28.82 66 79.64 0 50.821-27.94 79.64-66 79.64-37.84 0-66-28.819-66-79.64zm96.141 0c0-34.98-12.32-49.5-30.14-49.5-17.6 0-29.92 14.52-29.92 49.5s12.32 49.5 29.92 49.5c17.82 0 30.14-14.52 30.14-49.5zM380.47 212.816v154.001h-35.64v-125.4h-30.8v-28.6h66.44zM536.23 322.157c0 29.04-25.961 47.3-65.121 47.3-38.94 0-64.68-18.26-64.68-47.3 0-16.5 8.58-28.82 23.32-36.3-11.44-7.04-17.82-17.82-17.82-31.68 0-27.06 24.2-44 59.18-44 35.42 0 59.621 16.94 59.621 44 0 13.86-6.6 24.64-18.041 31.68 14.961 7.48 23.541 19.8 23.541 36.3zm-36.08-1.1c0-13.64-11.22-22-29.04-22-17.6 0-28.6 8.36-28.6 22 0 13.641 11 22.221 28.6 22.221 17.82-.001 29.04-8.581 29.04-22.221zm-52.8-65.34c0 11.66 9.24 18.92 23.76 18.92 14.74 0 24.2-7.26 24.2-18.92 0-12.1-9.68-19.36-24.2-19.36-14.3-.001-23.76 7.26-23.76 19.36z"/></g></svg>