<svg xmlns="http://www.w3.org/2000/svg" viewBox="0 0 400.03 260.65"><defs><style>.a{fill:#221f20}.b{fill:#fff}.c{fill:none;stroke:#221f20;stroke-miterlimit:10}</style></defs><title>cover</title><path class="a" d="M.41 211.31h91.17v49.34H.41z"/><path class="b" d="M9.52 246.03l10.36-8.49c3.87-3.2 5.38-4.89 5.38-7.47s-1.73-4-4.18-4-4 1.33-6.36 4.18l-4.8-3.87c3.07-4.18 6-6.45 11.6-6.45 6.45 0 10.71 3.78 10.71 9.6v.09c0 5.2-2.67 7.78-8.18 12l-5.07 3.92h13.56v5.91h-23v-5.42zM42.98 227.05l-5.42 1.33-1.42-5.6 8.94-2.67h4.67v31.34h-6.77v-24.4zM56.2 235.99v-.09c0-9 5.6-16.09 13.87-16.09s13.78 7 13.78 16v.09c0 9-5.56 16.09-13.87 16.09s-13.78-6.98-13.78-16zm20.63 0v-.09c0-5.65-2.76-9.91-6.85-9.91s-6.76 4.13-6.76 9.82v.09c0 5.69 2.71 9.91 6.85 9.91s6.75-4.18 6.75-9.82z"/><path class="a" d="M.41 155.1h91.17v49.34H.41z"/><path class="b" d="M13.51 170.18l-5.59 1.38-1.47-5.78 9.22-2.75h4.81v32.33h-7v-25.18zM27.98 192.11l3.71-5.36a10.39 10.39 0 0 0 7 2.75c3.94 0 6.05-3 6.51-7.29a9.76 9.76 0 0 1-6.51 2.2c-7 0-11.46-3.85-11.46-10.36v-.09c0-6.47 5-11.23 12.24-11.23 4.31 0 6.83 1.05 9.26 3.48s3.81 5.78 3.81 12.1v.09c0 10.41-4.91 17.52-14 17.52a15.51 15.51 0 0 1-10.56-3.81zm17.38-18.34v-.09c0-2.84-2.11-4.91-5.64-4.91s-5.46 2-5.46 4.86v.09c0 2.84 2.11 4.81 5.59 4.81s5.53-2.02 5.53-4.77zM73.3 188.43H57.62l-1.15-5 17.61-20.4h6v19.67h4.31v5.73h-4.31v6.92h-6.74v-6.92zm0-5.73v-10l-8.53 10h8.53z"/><path class="a" d="M.41 99.42h91.17v49.34H.41z"/><path class="b" d="M19.64 115.11l-5.59 1.38-1.47-5.78 9.22-2.75h4.81v32.33h-7v-25.18zM34.12 136.98l3.71-5.36a10.39 10.39 0 0 0 7 2.75c3.94 0 6.05-3 6.51-7.29a9.76 9.76 0 0 1-6.51 2.2c-7 0-11.46-3.85-11.46-10.36v-.09c0-6.47 5-11.23 12.24-11.23 4.31 0 6.83 1.05 9.26 3.48s3.81 5.78 3.81 12.1v.09c0 10.41-4.91 17.52-14 17.52a15.51 15.51 0 0 1-10.56-3.81zm17.38-18.34v-.09c0-2.84-2.11-4.91-5.64-4.91s-5.46 2-5.46 4.86v.09c0 2.84 2.11 4.81 5.59 4.81s5.51-2.01 5.51-4.76zM69.33 115.11l-5.59 1.38-1.47-5.78 9.22-2.75h4.81v32.33h-7v-25.18z"/><path class="a" d="M103.35 116.97a5.85 5.85 0 0 0 4.24 1.8c1.56 0 2.32-.74 2.32-1.5 0-1-1.16-1.34-2.7-1.7-2.18-.5-5-1.1-5-4.08 0-2.22 1.92-4 5.06-4a7.42 7.42 0 0 1 5.2 1.86l-1.58 2.08a5.69 5.69 0 0 0-3.82-1.46c-1.28 0-2 .56-2 1.36s1.12 1.18 2.66 1.54c2.2.5 5 1.16 5 4.12 0 2.44-1.74 4.28-5.34 4.28a7.61 7.61 0 0 1-5.64-2.12zM119.03 111.11c2.88 0 4.84 2.16 4.84 5.32v.56h-7.18a2.6 2.6 0 0 0 2.78 2.24 4 4 0 0 0 2.58-1l1.12 1.64a6 6 0 0 1-4 1.34 5.07 5.07 0 1 1-.14-10.1zm-2.38 4.16h4.76a2.24 2.24 0 0 0-2.38-2.14 2.32 2.32 0 0 0-2.38 2.14zM132.23 115.17a1.57 1.57 0 0 0-1.78-1.8 2.75 2.75 0 0 0-2.2 1.14v6.5h-2.54v-9.66h2.54v1.26a4.42 4.42 0 0 1 3.38-1.5 2.81 2.81 0 0 1 3.14 3.08v6.82h-2.54v-5.84zM136.98 108.59a1.52 1.52 0 1 1 1.52 1.52 1.53 1.53 0 0 1-1.52-1.52zm.26 2.76h2.54v9.66h-2.54v-9.66zM141.73 116.17a5.11 5.11 0 1 1 5.1 5.08 4.89 4.89 0 0 1-5.1-5.08zm7.58 0a2.49 2.49 0 1 0-2.48 2.82 2.55 2.55 0 0 0 2.48-2.82zM153.83 111.35h2.54v1.32a4.13 4.13 0 0 1 3.08-1.54v2.48a3.12 3.12 0 0 0-3.08 1v6.38h-2.54v-9.66zM102.71 127.67h6.27a4.29 4.29 0 1 1 0 8.56h-3.4v4.78h-2.84v-13.34zm5.86 2.44h-3v3.68h3a1.84 1.84 0 1 0 0-3.68zM115.13 131.35h2.54v1.32a4.13 4.13 0 0 1 3.08-1.54v2.48a3.12 3.12 0 0 0-3.08 1v6.38h-2.54v-9.66zM121.71 136.17a5.11 5.11 0 1 1 5.1 5.08 4.89 4.89 0 0 1-5.1-5.08zm7.58 0a2.49 2.49 0 1 0-2.48 2.82 2.55 2.55 0 0 0 2.48-2.82zM136.35 141.28c0 2.2-1.12 3.66-3.44 3.66a5.43 5.43 0 0 1-1.1-.1l.16-2.08a2.66 2.66 0 0 0 .56.06 1.29 1.29 0 0 0 1.28-1.54v-9.92h2.54v9.92zm-2.8-12.68a1.52 1.52 0 1 1 1.52 1.52 1.53 1.53 0 0 1-1.52-1.53zM143.25 131.11c2.88 0 4.84 2.16 4.84 5.32v.56h-7.18a2.6 2.6 0 0 0 2.78 2.24 4 4 0 0 0 2.58-1l1.12 1.64a6 6 0 0 1-4 1.34 5.07 5.07 0 1 1-.14-10.1zm-2.38 4.16h4.76a2.24 2.24 0 0 0-2.38-2.14 2.32 2.32 0 0 0-2.38 2.14zM154.43 131.11a4.5 4.5 0 0 1 3.82 1.74l-1.66 1.56a2.34 2.34 0 0 0-2-1 2.82 2.82 0 0 0 0 5.62 2.44 2.44 0 0 0 2-1l1.66 1.54a4.45 4.45 0 0 1-3.82 1.76 5.11 5.11 0 1 1 0-10.22zM160.41 138.61v-5h-1.6v-2.22h1.6v-2.68h2.57v2.64h2v2.22h-2v4.36a.93.93 0 0 0 .88 1.06 1.39 1.39 0 0 0 .88-.28l.54 1.92a3.14 3.14 0 0 1-2.12.62 2.42 2.42 0 0 1-2.75-2.64zM103.35 172.11a5.85 5.85 0 0 0 4.24 1.8c1.56 0 2.32-.74 2.32-1.5 0-1-1.16-1.34-2.7-1.7-2.18-.5-5-1.1-5-4.08 0-2.22 1.92-4 5.06-4a7.42 7.42 0 0 1 5.2 1.86l-1.58 2.08a5.69 5.69 0 0 0-3.82-1.46c-1.28 0-2 .56-2 1.36s1.12 1.18 2.66 1.54c2.2.5 5 1.16 5 4.12 0 2.44-1.74 4.28-5.34 4.28a7.61 7.61 0 0 1-5.64-2.12zM114.03 171.29a5.11 5.11 0 1 1 5.1 5.08 4.89 4.89 0 0 1-5.1-5.08zm7.58 0a2.49 2.49 0 1 0-2.48 2.82 2.55 2.55 0 0 0 2.48-2.82zM126.69 168.69h-1.6v-2.22h1.6v-.52a3.11 3.11 0 0 1 3.26-3.36 4.1 4.1 0 0 1 1.84.4l-.52 1.8a1.56 1.56 0 0 0-.82-.2 1.2 1.2 0 0 0-1.2 1.4v.48h2v2.22h-2v7.42h-2.56v-7.44zM133.17 173.73v-5h-1.6v-2.22h1.6v-2.64h2.56v2.64h2v2.22h-2v4.36a.93.93 0 0 0 .88 1.06 1.39 1.39 0 0 0 .88-.28l.54 1.92a3.14 3.14 0 0 1-2.12.62 2.42 2.42 0 0 1-2.74-2.68zM145.87 169.55l-2 6.58h-2.72l-2.94-9.66h2.64l1.8 6.5 2.12-6.5h2.21l2.12 6.5 1.8-6.5h2.64l-2.93 9.64h-2.7zM160.61 175.11a4 4 0 0 1-3.06 1.24 3.22 3.22 0 0 1-3.36-3.2 3.06 3.06 0 0 1 3.36-3.08 3.9 3.9 0 0 1 3.06 1.18v-1.34c0-1-.84-1.62-2.12-1.62a4.07 4.07 0 0 0-2.82 1.14l-1-1.7a6.34 6.34 0 0 1 4.22-1.52c2.2 0 4.22.88 4.22 3.66v6.24h-2.54v-1zm0-2.52a2.54 2.54 0 0 0-2-.84 1.48 1.48 0 1 0 0 2.88 2.54 2.54 0 0 0 2-.84v-1.2zM165.67 166.47h2.54v1.32a4.13 4.13 0 0 1 3.08-1.54v2.48a3.12 3.12 0 0 0-3.08 1v6.38h-2.54v-9.66zM177.25 166.23c2.88 0 4.84 2.16 4.84 5.32v.56h-7.18a2.6 2.6 0 0 0 2.78 2.24 4 4 0 0 0 2.58-1l1.12 1.64a6 6 0 0 1-4 1.34 5.07 5.07 0 1 1-.14-10.1zm-2.38 4.16h4.76a2.24 2.24 0 0 0-2.38-2.14 2.32 2.32 0 0 0-2.38 2.14zM102.71 182.79h6.27a4.29 4.29 0 1 1 0 8.56h-3.4v4.76h-2.84v-13.32zm5.86 2.44h-3v3.68h3a1.84 1.84 0 1 0 0-3.68zM115.13 186.47h2.54v1.32a4.13 4.13 0 0 1 3.08-1.54v2.48a3.12 3.12 0 0 0-3.08 1v6.38h-2.54v-9.66zM121.71 191.29a5.11 5.11 0 1 1 5.1 5.08 4.89 4.89 0 0 1-5.1-5.08zm7.58 0a2.49 2.49 0 1 0-2.48 2.82 2.55 2.55 0 0 0 2.48-2.82zM136.35 196.39c0 2.2-1.12 3.66-3.44 3.66a5.43 5.43 0 0 1-1.1-.1l.16-2.08a2.66 2.66 0 0 0 .56.06 1.29 1.29 0 0 0 1.28-1.54v-9.92h2.54v9.92zm-2.8-12.68a1.52 1.52 0 1 1 1.52 1.52 1.53 1.53 0 0 1-1.52-1.52zM143.25 186.23c2.88 0 4.84 2.16 4.84 5.32v.56h-7.18a2.6 2.6 0 0 0 2.78 2.24 4 4 0 0 0 2.58-1l1.12 1.64a6 6 0 0 1-4 1.34 5.07 5.07 0 1 1-.14-10.1zm-2.38 4.16h4.76a2.24 2.24 0 0 0-2.38-2.14 2.32 2.32 0 0 0-2.38 2.14zM154.43 186.23a4.5 4.5 0 0 1 3.82 1.74l-1.66 1.56a2.34 2.34 0 0 0-2-1 2.82 2.82 0 0 0 0 5.62 2.44 2.44 0 0 0 2-1l1.66 1.54a4.45 4.45 0 0 1-3.82 1.76 5.11 5.11 0 1 1 0-10.22zM160.41 193.73v-5h-1.6v-2.22h1.6v-2.64h2.57v2.64h2v2.22h-2v4.36a.93.93 0 0 0 .88 1.06 1.39 1.39 0 0 0 .88-.28l.54 1.92a3.14 3.14 0 0 1-2.12.62 2.42 2.42 0 0 1-2.75-2.68zM103.35 228.27a5.85 5.85 0 0 0 4.24 1.8c1.56 0 2.32-.74 2.32-1.5 0-1-1.16-1.34-2.7-1.7-2.18-.5-5-1.1-5-4.08 0-2.22 1.92-4 5.06-4a7.42 7.42 0 0 1 5.2 1.86l-1.58 2.08a5.69 5.69 0 0 0-3.82-1.46c-1.28 0-2 .56-2 1.36s1.12 1.18 2.66 1.54c2.2.5 5 1.16 5 4.12 0 2.44-1.74 4.28-5.34 4.28a7.6 7.6 0 0 1-5.64-2.12zM114.03 227.47a5.11 5.11 0 1 1 5.1 5.08 4.89 4.89 0 0 1-5.1-5.08zm7.58 0a2.49 2.49 0 1 0-2.48 2.82 2.55 2.55 0 0 0 2.48-2.82zM126.69 224.87h-1.6v-2.22h1.6v-.54a3.11 3.11 0 0 1 3.26-3.36 4.1 4.1 0 0 1 1.84.4l-.52 1.8a1.56 1.56 0 0 0-.82-.2 1.2 1.2 0 0 0-1.2 1.4v.48h2v2.22h-2v7.44h-2.56v-7.44zM133.17 229.91v-5h-1.6v-2.22h1.6v-2.68h2.56v2.64h2v2.22h-2v4.36a.93.93 0 0 0 .88 1.06 1.39 1.39 0 0 0 .88-.28l.54 1.92a3.14 3.14 0 0 1-2.12.62 2.42 2.42 0 0 1-2.74-2.64zM145.87 225.73l-2 6.58h-2.72l-2.94-9.66h2.64l1.8 6.5 2.12-6.5h2.21l2.12 6.5 1.8-6.5h2.64l-2.94 9.66h-2.7zM160.61 231.31a4 4 0 0 1-3.06 1.24 3.22 3.22 0 0 1-3.36-3.2 3.06 3.06 0 0 1 3.36-3.08 3.9 3.9 0 0 1 3.06 1.18v-1.34c0-1-.84-1.62-2.12-1.62a4.07 4.07 0 0 0-2.82 1.14l-1-1.7a6.34 6.34 0 0 1 4.31-1.52c2.2 0 4.22.88 4.22 3.66v6.24h-2.54v-1zm0-2.52a2.54 2.54 0 0 0-2-.84 1.48 1.48 0 1 0 0 2.88 2.54 2.54 0 0 0 2-.84v-1.2zM165.67 222.65h2.54v1.32a4.13 4.13 0 0 1 3.08-1.54v2.48a3.12 3.12 0 0 0-3.08 1v6.38h-2.54v-9.66zM177.25 222.41c2.88 0 4.84 2.16 4.84 5.32v.56h-7.18a2.6 2.6 0 0 0 2.78 2.24 4 4 0 0 0 2.58-1l1.12 1.64a6 6 0 0 1-4 1.34 5.07 5.07 0 1 1-.14-10.1zm-2.38 4.16h4.76a2.24 2.24 0 0 0-2.38-2.14 2.32 2.32 0 0 0-2.38 2.14zM189.11 218.97h6.24a4.29 4.29 0 1 1 0 8.56h-3.37v4.78h-2.84v-13.34zm5.87 2.44h-3v3.7h3a1.85 1.85 0 1 0 0-3.7zM201.53 222.65h2.54v1.32a4.13 4.13 0 0 1 3.08-1.54v2.48a3.12 3.12 0 0 0-3.08 1v6.38h-2.54v-9.66zM208.11 227.47a5.11 5.11 0 1 1 5.1 5.08 4.89 4.89 0 0 1-5.1-5.08zm7.58 0a2.49 2.49 0 1 0-2.48 2.82 2.55 2.55 0 0 0 2.48-2.82zM222.75 232.57c0 2.2-1.12 3.66-3.44 3.66a5.39 5.39 0 0 1-1.1-.1l.16-2.08a2.66 2.66 0 0 0 .56.06 1.29 1.29 0 0 0 1.28-1.54v-9.92h2.54v9.92zm-2.77-12.68a1.52 1.52 0 1 1 1.52 1.52 1.53 1.53 0 0 1-1.52-1.52zM229.65 222.41c2.88 0 4.84 2.16 4.84 5.32v.56h-7.18a2.6 2.6 0 0 0 2.78 2.24 4 4 0 0 0 2.58-1l1.12 1.64a6 6 0 0 1-4 1.34 5.07 5.07 0 1 1-.14-10.1zm-2.38 4.16h4.71a2.24 2.24 0 0 0-2.38-2.14 2.32 2.32 0 0 0-2.33 2.14zM240.83 222.41a4.5 4.5 0 0 1 3.82 1.74l-1.67 1.56a2.34 2.34 0 0 0-2-1 2.82 2.82 0 0 0 0 5.62 2.44 2.44 0 0 0 2-1l1.66 1.54a4.45 4.45 0 0 1-3.82 1.76 5.11 5.11 0 1 1 .01-10.22zM246.81 229.91v-5h-1.6v-2.22h1.6v-2.68h2.56v2.64h2v2.22h-2v4.36a.93.93 0 0 0 .88 1.06 1.39 1.39 0 0 0 .88-.28l.54 1.92a3.14 3.14 0 0 1-2.12.62 2.41 2.41 0 0 1-2.74-2.64zM258.25 218.97h9.44v2.44h-6.6v2.9h6.46v2.44h-6.46v3.1h6.6v2.46h-9.44v-13.34zM273.63 229.05l-2.22 3.26h-2.82l3.42-5-3.22-4.7h2.84l2 3 2-3h2.84l-3.24 4.7 3.46 5h-2.84zM279.93 235.99v-13.34h2.54v1.22a3.73 3.73 0 0 1 3-1.46c2.48 0 4.28 1.84 4.28 5.06s-1.8 5.08-4.28 5.08a3.69 3.69 0 0 1-3-1.48v4.92h-2.54zm4.72-11.32a2.84 2.84 0 0 0-2.18 1.1v3.42a2.91 2.91 0 0 0 2.18 1.1c1.46 0 2.44-1.14 2.44-2.82a2.5 2.5 0 0 0-2.44-2.8zM295.98 222.41c2.88 0 4.84 2.16 4.84 5.32v.56h-7.18a2.6 2.6 0 0 0 2.78 2.24 4 4 0 0 0 2.58-1l1.12 1.64a6 6 0 0 1-4 1.34 5.07 5.07 0 1 1-.14-10.1zm-2.38 4.16h4.76a2.24 2.24 0 0 0-2.38-2.14 2.32 2.32 0 0 0-2.35 2.14zM302.69 222.65h2.54v1.32a4.13 4.13 0 0 1 3.08-1.54v2.48a3.12 3.12 0 0 0-3.08 1v6.38h-2.54v-9.66zM309.63 219.89a1.52 1.52 0 1 1 1.52 1.52 1.53 1.53 0 0 1-1.52-1.52zm.26 2.76h2.54v9.66h-2.54v-9.66zM319.33 222.41c2.88 0 4.84 2.16 4.84 5.32v.56h-7.19a2.6 2.6 0 0 0 2.78 2.24 4 4 0 0 0 2.58-1l1.12 1.64a6 6 0 0 1-4 1.34 5.07 5.07 0 1 1-.13-10.1zm-2.35 4.16h4.76a2.24 2.24 0 0 0-2.38-2.14 2.32 2.32 0 0 0-2.38 2.14zM332.53 226.47a1.57 1.57 0 0 0-1.78-1.8 2.75 2.75 0 0 0-2.2 1.14v6.5h-2.57v-9.66h2.54v1.26a4.42 4.42 0 0 1 3.38-1.5 2.81 2.81 0 0 1 3.14 3.08v6.82h-2.54v-5.84zM342.09 222.41a4.5 4.5 0 0 1 3.82 1.74l-1.66 1.56a2.34 2.34 0 0 0-2-1 2.82 2.82 0 0 0 0 5.62 2.44 2.44 0 0 0 2-1l1.66 1.54a4.45 4.45 0 0 1-3.82 1.76 5.11 5.11 0 1 1 0-10.22zM351.98 222.41c2.88 0 4.84 2.16 4.84 5.32v.56h-7.18a2.6 2.6 0 0 0 2.78 2.24 4 4 0 0 0 2.58-1l1.12 1.64a6 6 0 0 1-4 1.34 5.07 5.07 0 1 1-.14-10.1zm-2.38 4.16h4.76a2.24 2.24 0 0 0-2.38-2.14 2.32 2.32 0 0 0-2.41 2.14zM370.19 225.73l-2 6.58h-2.72l-2.94-9.66h2.64l1.8 6.5 2.12-6.5h2.26l2.12 6.5 1.8-6.5h2.64l-2.94 9.66h-2.7zM378.87 219.89a1.52 1.52 0 1 1 1.52 1.52 1.53 1.53 0 0 1-1.52-1.52zm.26 2.76h2.54v9.66h-2.54v-9.66zM384.69 229.91v-5h-1.6v-2.22h1.6v-2.68h2.56v2.64h2v2.22h-2v4.36a.93.93 0 0 0 .88 1.06 1.39 1.39 0 0 0 .88-.28l.54 1.92a3.14 3.14 0 0 1-2.12.62 2.41 2.41 0 0 1-2.74-2.64zM397.49 226.43a1.55 1.55 0 0 0-1.8-1.76 2.82 2.82 0 0 0-2.2 1.14v6.5h-2.51v-13.34h2.54v4.94a4.47 4.47 0 0 1 3.4-1.5c2.12 0 3.14 1.16 3.14 3v6.86h-2.54v-5.88zM102.07 245.65a6.75 6.75 0 0 1 7-6.9 6.16 6.16 0 0 1 5.68 3.26l-2.44 1.2a3.65 3.65 0 0 0-3.24-1.94 4.39 4.39 0 0 0 0 8.76 3.62 3.62 0 0 0 3.24-1.94l2.44 1.18a6.19 6.19 0 0 1-5.68 3.28 6.75 6.75 0 0 1-7-6.9zM115.77 247.47a5.11 5.11 0 1 1 5.1 5.08 4.89 4.89 0 0 1-5.1-5.08zm7.58 0a2.49 2.49 0 1 0-2.48 2.82 2.55 2.55 0 0 0 2.48-2.82zM127.87 242.65h2.54v1.32a4.13 4.13 0 0 1 3.08-1.54v2.48a3.12 3.12 0 0 0-3.08 1v6.38h-2.54v-9.66zM135.07 255.99v-13.34h2.54v1.22a3.73 3.73 0 0 1 3-1.46c2.48 0 4.28 1.84 4.28 5.06s-1.8 5.08-4.28 5.08a3.69 3.69 0 0 1-3-1.48v4.92h-2.54zm4.72-11.32a2.84 2.84 0 0 0-2.18 1.1v3.42a2.91 2.91 0 0 0 2.18 1.1c1.46 0 2.44-1.14 2.44-2.82a2.5 2.5 0 0 0-2.44-2.8zM146.15 247.47a5.11 5.11 0 1 1 5.1 5.08 4.89 4.89 0 0 1-5.1-5.08zm7.58 0a2.49 2.49 0 1 0-2.48 2.82 2.55 2.55 0 0 0 2.48-2.82zM158.25 242.65h2.54v1.32a4.13 4.13 0 0 1 3.08-1.54v2.48a3.12 3.12 0 0 0-3.08 1v6.38h-2.54v-9.66zM171.25 251.31a4 4 0 0 1-3.06 1.24 3.22 3.22 0 0 1-3.36-3.2 3.06 3.06 0 0 1 3.36-3.08 3.9 3.9 0 0 1 3.06 1.18v-1.34c0-1-.84-1.62-2.12-1.62a4.07 4.07 0 0 0-2.82 1.14l-1-1.7a6.34 6.34 0 0 1 4.22-1.52c2.2 0 4.22.88 4.22 3.66v6.24h-2.54v-1zm0-2.52a2.54 2.54 0 0 0-2-.84 1.48 1.48 0 1 0 0 2.88 2.54 2.54 0 0 0 2-.84v-1.2zM176.81 249.91v-5h-1.6v-2.22h1.6v-2.68h2.56v2.64h2v2.22h-2v4.36a.93.93 0 0 0 .88 1.06 1.39 1.39 0 0 0 .88-.28l.54 1.92a3.14 3.14 0 0 1-2.12.62 2.42 2.42 0 0 1-2.74-2.64zM187.45 242.41c2.88 0 4.84 2.16 4.84 5.32v.56h-7.18a2.6 2.6 0 0 0 2.78 2.24 4 4 0 0 0 2.58-1l1.12 1.64a6 6 0 0 1-4 1.34 5.07 5.07 0 1 1-.14-10.1zm-2.38 4.16h4.76a2.24 2.24 0 0 0-2.38-2.14 2.32 2.32 0 0 0-2.38 2.14zM199.31 238.97h6.24a4.29 4.29 0 1 1 0 8.56h-3.4v4.78h-2.84v-13.34zm5.86 2.44h-3v3.7h3a1.85 1.85 0 1 0 0-3.7zM217.13 251.31a4 4 0 0 1-3.06 1.24 3.22 3.22 0 0 1-3.36-3.2 3.06 3.06 0 0 1 3.36-3.08 3.9 3.9 0 0 1 3.06 1.18v-1.34c0-1-.84-1.62-2.12-1.62a4.07 4.07 0 0 0-2.82 1.14l-1-1.7a6.34 6.34 0 0 1 4.22-1.52c2.2 0 4.22.88 4.22 3.66v6.24h-2.54v-1zm0-2.52a2.54 2.54 0 0 0-2-.84 1.48 1.48 0 1 0 0 2.88 2.54 2.54 0 0 0 2-.84v-1.2zM222.19 242.65h2.54v1.32a4.13 4.13 0 0 1 3.08-1.54v2.48a3.12 3.12 0 0 0-3.08 1v6.38h-2.54v-9.66zM229.89 249.91v-5h-1.6v-2.22h1.6v-2.68h2.56v2.64h2v2.22h-2v4.36a.93.93 0 0 0 .88 1.06 1.39 1.39 0 0 0 .88-.28l.54 1.92a3.14 3.14 0 0 1-2.12.62 2.42 2.42 0 0 1-2.74-2.64zM242.67 246.47a1.57 1.57 0 0 0-1.78-1.8 2.75 2.75 0 0 0-2.2 1.14v6.5h-2.54v-9.66h2.54v1.26a4.42 4.42 0 0 1 3.38-1.5 2.81 2.81 0 0 1 3.14 3.08v6.82h-2.54v-5.84zM252.11 242.41c2.88 0 4.84 2.16 4.84 5.32v.56h-7.18a2.6 2.6 0 0 0 2.78 2.24 4 4 0 0 0 2.58-1l1.12 1.64a6 6 0 0 1-4 1.34 5.07 5.07 0 1 1-.14-10.1zm-2.38 4.16h4.76a2.24 2.24 0 0 0-2.38-2.14 2.32 2.32 0 0 0-2.38 2.14zM258.79 242.65h2.54v1.32a4.14 4.14 0 0 1 3.08-1.54v2.48a3.12 3.12 0 0 0-3.08 1v6.38h-2.54v-9.66zM266.25 249.27a5.53 5.53 0 0 0 3.34 1.32c1.1 0 1.62-.38 1.62-1s-.84-.92-1.94-1.14c-1.66-.32-3.8-.72-3.8-3 0-1.62 1.42-3 4-3a6.17 6.17 0 0 1 3.9 1.32l-1 1.74a4.08 4.08 0 0 0-2.86-1.12c-.92 0-1.52.34-1.52.9s.76.82 1.84 1c1.66.32 3.88.76 3.88 3.16 0 1.76-1.5 3.1-4.18 3.1a6.5 6.5 0 0 1-4.32-1.5zM83.17 4.95h6.15v1.53h-4.34v2.63h3.68v1.53h-3.68v3h4.49v1.53h-6.3V4.95zM91.38 4.95h1.86l3.18 5.76 1.06 2.17h.06c-.09-1-.23-2.35-.23-3.49V4.95h1.72v10.23h-1.86l-3.19-5.76-1-2.17h-.06c.09 1.08.23 2.31.23 3.46v4.47h-1.77V4.95zM105.87 4.76a4.15 4.15 0 0 1 3 1.3l-1 1.13a2.67 2.67 0 0 0-2-.84c-1.81 0-3 1.41-3 3.71s1.11 3.72 3.11 3.72a2.24 2.24 0 0 0 1.45-.45v-2.22h-1.92V9.64h3.55v4.47a5 5 0 0 1-3.3 1.22c-2.72 0-4.79-1.88-4.79-5.27s2.14-5.3 4.9-5.3zM111.29 4.95h1.81v10.23h-1.81V4.95zM115.56 4.95h1.86l3.18 5.76 1.06 2.17h.06c-.09-1-.23-2.35-.23-3.49V4.95h1.72v10.23h-1.86l-3.17-5.76-1.06-2.17h-.06c.09 1.08.23 2.31.23 3.46v4.47h-1.72V4.95zM125.69 4.95h6.15v1.53h-4.33v2.63h3.68v1.53h-3.68v3h4.47v1.53h-6.3V4.95zM133.9 4.95h6.15v1.53h-4.33v2.63h3.68v1.53h-3.68v3h4.49v1.53h-6.3V4.95zM147.68 15.18l-2.21-4h-1.55v4h-1.81V4.95h3.44c2.13 0 3.77.75 3.77 3a2.86 2.86 0 0 1-2 2.92l2.44 4.27h-2zm-3.75-5.44h1.44c1.41 0 2.16-.59 2.16-1.75s-.75-1.58-2.16-1.58h-1.44v3.33zM151.35 4.95h1.81v10.23h-1.81V4.95zM155.61 4.95h1.86l3.18 5.76 1.06 2.17h.06c-.09-1-.23-2.35-.23-3.49V4.95h1.72v10.23h-1.86l-3.17-5.76-1.06-2.17h-.06c.09 1.08.23 2.31.23 3.46v4.47h-1.72V4.95zM170.1 4.76a4.15 4.15 0 0 1 3 1.3l-1 1.13a2.67 2.67 0 0 0-2-.84c-1.81 0-3 1.41-3 3.71s1.09 3.74 3.14 3.74a2.24 2.24 0 0 0 1.45-.45v-2.24h-1.92V9.64h3.55v4.47a5 5 0 0 1-3.3 1.22c-2.72 0-4.79-1.88-4.79-5.27s2.12-5.3 4.87-5.3zM3.51 22.17a2.91 2.91 0 0 1 2.15 1l-.56.64a2.1 2.1 0 0 0-1.57-.73c-1.5 0-2.49 1.22-2.49 3.18s.94 3.19 2.44 3.19a2.3 2.3 0 0 0 1.8-.88l.56.61a3 3 0 0 1-2.39 1.14c-2 0-3.45-1.51-3.45-4.08s1.5-4.07 3.51-4.07zM9.36 24.2a3.08 3.08 0 1 1-2.7 3.07 2.79 2.79 0 0 1 2.7-3.07zm0 5.3c1 0 1.68-.9 1.68-2.23s-.67-2.25-1.68-2.25-1.68.91-1.68 2.25.68 2.24 1.68 2.24zM13.53 24.35h.82l.08.84a2.56 2.56 0 0 1 1.81-1 1.53 1.53 0 0 1 1.61 1.12 2.75 2.75 0 0 1 1.92-1.12c1.2 0 1.78.79 1.78 2.28v3.69h-1v-3.55c0-1.09-.35-1.56-1.08-1.56a2.14 2.14 0 0 0-1.46.9v4.22h-1v-3.56c0-1.09-.35-1.56-1.09-1.56a2.19 2.19 0 0 0-1.46.9v4.22h-1v-5.82zM24.37 30.67v2h-1v-8.32h.82l.08.67a3 3 0 0 1 1.86-.82c1.5 0 2.3 1.16 2.3 3 0 2-1.19 3.14-2.52 3.14a2.7 2.7 0 0 1-1.62-.67zm1.43-1.18c1 0 1.67-.88 1.67-2.31 0-1.28-.43-2.15-1.54-2.15a2.46 2.46 0 0 0-1.56.79v3.06a2.31 2.31 0 0 0 1.42.61zM29.93 24.35h1v3.56c0 1.09.32 1.56 1.09 1.56a2 2 0 0 0 1.57-1v-4.12h1v5.83h-.82l-.08-.91a2.46 2.46 0 0 1-1.92 1.06c-1.24 0-1.79-.79-1.79-2.28v-3.7zM36.62 25.11h-.86v-.7l.91-.06.12-1.63h.83v1.63h1.57v.76h-1.57v3.24c0 .72.23 1.13.9 1.13a2.12 2.12 0 0 0 .66-.16l.19.79a3.6 3.6 0 0 1-1.08.22c-1.25 0-1.67-.79-1.67-1.94v-3.28zM42.52 24.2c1.49 0 2.33 1.07 2.33 2.73a3.47 3.47 0 0 1 0 .54h-3.93a1.94 1.94 0 0 0 1.94 2.05 2.64 2.64 0 0 0 1.45-.46l.35.65a3.47 3.47 0 0 1-1.92.6 3.08 3.08 0 0 1-.22-6.11zm1.46 2.63c0-1.19-.53-1.85-1.44-1.85a1.82 1.82 0 0 0-1.68 1.85h3.12zM46.27 24.35h.82l.08 1.06a2 2 0 0 1 1.66-1.2 1.45 1.45 0 0 1 .62.12l-.19.86a1.63 1.63 0 0 0-.56-.1 1.76 1.76 0 0 0-1.48 1.34v3.74h-1v-5.82zM52.98 28.46a3.06 3.06 0 0 0 2.17 1 1.39 1.39 0 0 0 1.64-1.28c0-.8-.58-1.06-1.32-1.39l-1.13-.49a2.11 2.11 0 0 1 .89-4.11 3.22 3.22 0 0 1 2.31 1l-.53.65a2.53 2.53 0 0 0-1.79-.74 1.26 1.26 0 0 0-1.48 1.15 1.61 1.61 0 0 0 1.31 1.31l1.13.48a2.19 2.19 0 0 1 1.62 2.1c0 1.25-1 2.24-2.69 2.24a3.79 3.79 0 0 1-2.75-1.27zM61.65 24.2a2.4 2.4 0 0 1 1.7.7l-.49.64a1.76 1.76 0 0 0-1.18-.52 2 2 0 0 0-1.82 2.25c0 1.33.73 2.23 1.8 2.23a2.08 2.08 0 0 0 1.37-.59l.44.65a2.89 2.89 0 0 1-1.9.76 2.74 2.74 0 0 1-2.73-3 2.82 2.82 0 0 1 2.81-3.12zM64.49 22.51a.69.69 0 0 1 1.37 0 .69.69 0 0 1-1.37 0zm.18 1.83h1v5.83h-1v-5.82zM69.7 24.2c1.49 0 2.33 1.07 2.33 2.73a3.47 3.47 0 0 1 0 .54H68.1a1.94 1.94 0 0 0 1.88 2.06 2.64 2.64 0 0 0 1.45-.46l.35.65a3.47 3.47 0 0 1-1.92.6 3.08 3.08 0 0 1-.16-6.12zm1.46 2.63c0-1.19-.53-1.85-1.44-1.85a1.82 1.82 0 0 0-1.68 1.85h3.12zM73.46 24.35h.82l.08.84a2.75 2.75 0 0 1 2-1c1.22 0 1.77.79 1.77 2.28v3.69h-1v-3.55c0-1.09-.34-1.56-1.1-1.56a2.23 2.23 0 0 0-1.6.9v4.22h-1v-5.82zM82.35 24.2a2.4 2.4 0 0 1 1.7.7l-.49.64a1.76 1.76 0 0 0-1.18-.52 2 2 0 0 0-1.82 2.25c0 1.33.73 2.23 1.8 2.23a2.08 2.08 0 0 0 1.37-.59l.44.65a2.89 2.89 0 0 1-1.9.76 2.74 2.74 0 0 1-2.73-3 2.82 2.82 0 0 1 2.81-3.12zM87.44 24.2c1.49 0 2.33 1.07 2.33 2.73a3.47 3.47 0 0 1 0 .54h-3.93a1.94 1.94 0 0 0 1.94 2.05 2.64 2.64 0 0 0 1.45-.46l.35.65a3.47 3.47 0 0 1-1.92.6 3.08 3.08 0 0 1-.22-6.11zm1.46 2.63c0-1.19-.53-1.85-1.44-1.85a1.82 1.82 0 0 0-1.68 1.85h3.12zM19.54 15.11a2.45 2.45 0 0 1-2.78-2.56 2.54 2.54 0 0 1 1.83-2.56c1.7-.62 2.06-.7 3.23-1.06v-.32a2.73 2.73 0 0 0-.11-1.06 1.72 1.72 0 0 0-1.73-1.09 2.09 2.09 0 0 0-1.92 1.18l-.48-.28a3.17 3.17 0 0 1 3.26-2.15 2.94 2.94 0 0 1 2.73 1.19 4.74 4.74 0 0 1 .44 2.47V12.56c0 .67.11 1.19.67 1.19a.6.6 0 0 0 .47-.22l.31.35a2.44 2.44 0 0 1-2 1.2 1.38 1.38 0 0 1-1.45-1 3.22 3.22 0 0 1-2.47 1.03zm2.28-5a10.5 10.5 0 0 0-2.09.79 1.57 1.57 0 0 0-.83 1.49 1.27 1.27 0 0 0 1.42 1.38 2.59 2.59 0 0 0 1.5-.44v-3.22zM.48 14.58c0-1 0-1.77-.07-2.75h.57a2 2 0 0 0 .44 1.35 3.19 3.19 0 0 0 2.21.73c1.81 0 2.66-.69 2.66-2.16 0-1.26-.78-1.79-1.86-2.52l-.18-.12-1.14-.76c-1.59-1-2.4-1.89-2.4-3.57 0-.82.31-3.5 4.3-3.5a19.88 19.88 0 0 1 3.13.25v2.79h-.47a1.85 1.85 0 0 0-.47-1.34 3.28 3.28 0 0 0-2.13-.56c-2.11 0-2.36 1.08-2.36 1.9 0 1.12.57 1.5 1.83 2.33l1.45 1c1.23.82 2.39 1.59 2.39 3.63 0 3.45-3.22 3.82-4.6 3.82a9.93 9.93 0 0 1-3.3-.52zm25.73-8.73a8.55 8.55 0 0 0 1.92-.13 3.65 3.65 0 0 0 1.27-.41l.19.11v.76a4.68 4.68 0 0 1 2.76-.92 2.88 2.88 0 0 1 3.15 2.26 9.92 9.92 0 0 1 .13 1.7V12c0 1.57.06 2 .36 2.29a1.51 1.51 0 0 0 .92.28v.45c-.61 0-1.7-.09-2.36-.09-.87 0-1.85 0-2.38.1v-.46a1.66 1.66 0 0 0 1-.35c.28-.28.32-.83.36-2v-1.65a19.55 19.55 0 0 0-.08-2.18 1.8 1.8 0 0 0-2-1.8 3.71 3.71 0 0 0-1.79.4v5c0 1.57.06 2 .36 2.29a1.51 1.51 0 0 0 .92.28v.45c-.79 0-1.73-.09-2.34-.09a18.82 18.82 0 0 0-2.4.1v-.46a1.42 1.42 0 0 0 1-.41c.29-.33.31-1.14.31-2.76V8.67a4.38 4.38 0 0 0-.19-1.93 1.26 1.26 0 0 0-1.11-.35v-.54zm11.83 8.7a1.4 1.4 0 0 0 1-.4c.3-.33.31-1.13.31-2.75V6.67h-1.24v-.56a5.28 5.28 0 0 0 1.24-.64 16.7 16.7 0 0 1 .14-2.52c.37-2 1.66-3 3.81-3a3.82 3.82 0 0 1 2.4.79v.2l-.95 1.31h-.23a1.68 1.68 0 0 0-1.54-1.14 1.44 1.44 0 0 0-1 .34c-.41.41-.48 1-.48 2.24v1.84h2.13v1.18H41.5v5.28a5.14 5.14 0 0 0 .21 2.11 2 2 0 0 0 1.51.43v.5c-.7 0-1.79-.09-2.6-.09a24.31 24.31 0 0 0-2.59.1v-.49zm11 .63c-2.91 0-4.64-1.81-4.64-4.84 0-2.36 1.27-5.1 4.84-5.1 2.91 0 4.64 1.81 4.64 4.84-.04 2.34-1.31 5.1-4.9 5.1zm.12-8.85a2 2 0 0 0-1.35.43 4.37 4.37 0 0 0-1.15 3.47c0 .64.12 3.84 2.46 3.84a2 2 0 0 0 1.34-.43c.77-.64 1.16-1.81 1.16-3.47-.04-.64-.16-3.84-2.5-3.84zm5.68-.52a9.14 9.14 0 0 0 2.08-.17 4.69 4.69 0 0 0 1.13-.32l.17.08v.83a3.15 3.15 0 0 1 2.2-.88 2.28 2.28 0 0 1 1.66.59v.3l-.8 1.47h-.39a1.7 1.7 0 0 0-1.59-.86 1.8 1.8 0 0 0-1 .3v4.8a5 5 0 0 0 .21 2.09 1.89 1.89 0 0 0 1.51.43V15c-.65 0-1.78-.09-2.59-.09a24.09 24.09 0 0 0-2.59.1v-.48a1.36 1.36 0 0 0 1-.4c.3-.33.31-1.11.31-2.73V8.67a4.18 4.18 0 0 0-.19-1.93 1.36 1.36 0 0 0-1.12-.35v-.58zM68.24.55a14.05 14.05 0 0 0 2.24-.27 6 6 0 0 0 1-.25l.17.1c-.08.79-.08 2.56-.08 3.81v7.77a5.52 5.52 0 0 0 .19 2.11 1.29 1.29 0 0 0 1.1.36v.51a13.2 13.2 0 0 0-2 .2 4.08 4.08 0 0 0-1.06.26l-.33-.04v-.8a4.51 4.51 0 0 1-2.66.9c-2.61 0-4.3-1.81-4.3-4.62a6.39 6.39 0 0 1 .51-2.57 4.77 4.77 0 0 1 4.55-2.72 9.43 9.43 0 0 1 1.86.18v-2a5.07 5.07 0 0 0-.19-2.07 1.18 1.18 0 0 0-1-.34V.56zm-.33 13.23a2.8 2.8 0 0 0 1.57-.38V7.03a2.66 2.66 0 0 0-1.9-.64c-1.85 0-2.75 1.27-2.75 3.88-.05 1.1.28 3.52 3.04 3.52zm-52.11.33a3.15 3.15 0 0 1-2.58 1c-1.47 0-2.29-.52-2.65-1.7a8.22 8.22 0 0 1-.15-1.94V6.68H9.2v-.37a4.58 4.58 0 0 0 1.19-.66 7 7 0 0 0 1.77-2.29h.42V5.5h3.23v1.18h-3.23v5c0 1.5.27 2.35 1.68 2.35a2.77 2.77 0 0 0 1.37-.36z"/><path class="c" d="M77.31.04v15.13"/></svg>