<svg xmlns="http://www.w3.org/2000/svg" viewBox="0 0 400.03 260.65"><defs><style>.a{fill:#221f20;}.b{fill:#fff;}.c{fill:none;stroke:#221f20;stroke-miterlimit:10;}</style></defs><title>cover</title><rect class="a" x="0.41" y="211.31" width="91.17" height="49.34"/><path class="b" d="M92.54,307.92l10.36-8.49c3.87-3.2,5.38-4.89,5.38-7.47s-1.73-4-4.18-4-4,1.33-6.36,4.18l-4.8-3.87c3.07-4.18,6-6.45,11.6-6.45,6.45,0,10.71,3.78,10.71,9.6v0.09c0,5.2-2.67,7.78-8.18,12L102,307.43h13.56v5.91h-23v-5.42Z" transform="translate(-83.02 -61.89)"/><path class="b" d="M126,288.94l-5.42,1.33-1.42-5.6,8.94-2.67h4.67v31.34H126v-24.4Z" transform="translate(-83.02 -61.89)"/><path class="b" d="M139.22,297.88v-0.09c0-9,5.6-16.09,13.87-16.09s13.78,7,13.78,16v0.09c0,9-5.56,16.09-13.87,16.09S139.22,306.9,139.22,297.88Zm20.63,0v-0.09c0-5.65-2.76-9.91-6.85-9.91s-6.76,4.13-6.76,9.82v0.09c0,5.69,2.71,9.91,6.85,9.91S159.84,303.52,159.84,297.88Z" transform="translate(-83.02 -61.89)"/><rect class="a" x="0.41" y="155.1" width="91.17" height="49.34"/><path class="b" d="M96.53,232.07l-5.59,1.38-1.47-5.78,9.22-2.75h4.81v32.33h-7V232.07Z" transform="translate(-83.02 -61.89)"/><path class="b" d="M111,254l3.71-5.36a10.39,10.39,0,0,0,7,2.75c3.94,0,6.05-3,6.51-7.29a9.76,9.76,0,0,1-6.51,2.2c-7,0-11.46-3.85-11.46-10.36v-0.09c0-6.47,5-11.23,12.24-11.23,4.31,0,6.83,1.05,9.26,3.48s3.81,5.78,3.81,12.1v0.09c0,10.41-4.91,17.52-14,17.52A15.51,15.51,0,0,1,111,254Zm17.38-18.34v-0.09c0-2.84-2.11-4.91-5.64-4.91s-5.46,2-5.46,4.86v0.09c0,2.84,2.11,4.81,5.59,4.81S128.4,238.4,128.4,235.65Z" transform="translate(-83.02 -61.89)"/><path class="b" d="M156.32,250.32H140.64l-1.15-5,17.61-20.4h6v19.67h4.31v5.73h-4.31v6.92h-6.74v-6.92Zm0-5.73v-10l-8.53,10h8.53Z" transform="translate(-83.02 -61.89)"/><rect class="a" x="0.41" y="99.42" width="91.17" height="49.34"/><path class="b" d="M102.66,177l-5.59,1.38-1.47-5.78,9.22-2.75h4.81v32.33h-7V177Z" transform="translate(-83.02 -61.89)"/><path class="b" d="M117.14,198.87l3.71-5.36a10.39,10.39,0,0,0,7,2.75c3.94,0,6.05-3,6.51-7.29a9.76,9.76,0,0,1-6.51,2.2c-7,0-11.46-3.85-11.46-10.36v-0.09c0-6.47,5-11.23,12.24-11.23,4.31,0,6.83,1.05,9.26,3.48s3.81,5.78,3.81,12.1v0.09c0,10.41-4.91,17.52-14,17.52A15.51,15.51,0,0,1,117.14,198.87Zm17.38-18.34v-0.09c0-2.84-2.11-4.91-5.64-4.91s-5.46,2-5.46,4.86v0.09c0,2.84,2.11,4.81,5.59,4.81S134.52,183.28,134.52,180.53Z" transform="translate(-83.02 -61.89)"/><path class="b" d="M152.35,177l-5.59,1.38-1.47-5.78,9.22-2.75h4.81v32.33h-7V177Z" transform="translate(-83.02 -61.89)"/><path class="a" d="M186.37,178.86a5.85,5.85,0,0,0,4.24,1.8c1.56,0,2.32-.74,2.32-1.5,0-1-1.16-1.34-2.7-1.7-2.18-.5-5-1.1-5-4.08,0-2.22,1.92-4,5.06-4a7.42,7.42,0,0,1,5.2,1.86l-1.58,2.08a5.69,5.69,0,0,0-3.82-1.46c-1.28,0-2,.56-2,1.36s1.12,1.18,2.66,1.54c2.2,0.5,5,1.16,5,4.12,0,2.44-1.74,4.28-5.34,4.28a7.61,7.61,0,0,1-5.64-2.12Z" transform="translate(-83.02 -61.89)"/><path class="a" d="M202.05,173c2.88,0,4.84,2.16,4.84,5.32v0.56h-7.18a2.6,2.6,0,0,0,2.78,2.24,4,4,0,0,0,2.58-1l1.12,1.64a6,6,0,0,1-4,1.34A5.07,5.07,0,1,1,202.05,173Zm-2.38,4.16h4.76a2.24,2.24,0,0,0-2.38-2.14A2.32,2.32,0,0,0,199.67,177.16Z" transform="translate(-83.02 -61.89)"/><path class="a" d="M215.25,177.06a1.57,1.57,0,0,0-1.78-1.8,2.75,2.75,0,0,0-2.2,1.14v6.5h-2.54v-9.66h2.54v1.26a4.42,4.42,0,0,1,3.38-1.5,2.81,2.81,0,0,1,3.14,3.08v6.82h-2.54v-5.84Z" transform="translate(-83.02 -61.89)"/><path class="a" d="M220,170.48a1.52,1.52,0,1,1,1.52,1.52A1.53,1.53,0,0,1,220,170.48Zm0.26,2.76h2.54v9.66h-2.54v-9.66Z" transform="translate(-83.02 -61.89)"/><path class="a" d="M224.75,178.06a5.11,5.11,0,1,1,5.1,5.08A4.89,4.89,0,0,1,224.75,178.06Zm7.58,0a2.49,2.49,0,1,0-2.48,2.82A2.55,2.55,0,0,0,232.33,178.06Z" transform="translate(-83.02 -61.89)"/><path class="a" d="M236.85,173.24h2.54v1.32a4.13,4.13,0,0,1,3.08-1.54v2.48a3.12,3.12,0,0,0-3.08,1v6.38h-2.54v-9.66Z" transform="translate(-83.02 -61.89)"/><path class="a" d="M185.73,189.56H192a4.29,4.29,0,1,1,0,8.56h-3.4v4.78h-2.84V189.56Zm5.86,2.44h-3v3.68h3A1.84,1.84,0,1,0,191.59,192Z" transform="translate(-83.02 -61.89)"/><path class="a" d="M198.15,193.24h2.54v1.32a4.13,4.13,0,0,1,3.08-1.54v2.48a3.12,3.12,0,0,0-3.08,1v6.38h-2.54v-9.66Z" transform="translate(-83.02 -61.89)"/><path class="a" d="M204.73,198.06a5.11,5.11,0,1,1,5.1,5.08A4.89,4.89,0,0,1,204.73,198.06Zm7.58,0a2.49,2.49,0,1,0-2.48,2.82A2.55,2.55,0,0,0,212.31,198.06Z" transform="translate(-83.02 -61.89)"/><path class="a" d="M219.37,203.17c0,2.2-1.12,3.66-3.44,3.66a5.43,5.43,0,0,1-1.1-.1l0.16-2.08a2.66,2.66,0,0,0,.56.06,1.29,1.29,0,0,0,1.28-1.54v-9.92h2.54v9.92Zm-2.8-12.68a1.52,1.52,0,1,1,1.52,1.52A1.53,1.53,0,0,1,216.57,190.48Z" transform="translate(-83.02 -61.89)"/><path class="a" d="M226.27,193c2.88,0,4.84,2.16,4.84,5.32v0.56h-7.18a2.6,2.6,0,0,0,2.78,2.24,4,4,0,0,0,2.58-1l1.12,1.64a6,6,0,0,1-4,1.34A5.07,5.07,0,1,1,226.27,193Zm-2.38,4.16h4.76a2.24,2.24,0,0,0-2.38-2.14A2.32,2.32,0,0,0,223.89,197.16Z" transform="translate(-83.02 -61.89)"/><path class="a" d="M237.45,193a4.5,4.5,0,0,1,3.82,1.74l-1.66,1.56a2.34,2.34,0,0,0-2-1,2.82,2.82,0,0,0,0,5.62,2.44,2.44,0,0,0,2-1l1.66,1.54a4.45,4.45,0,0,1-3.82,1.76A5.07,5.07,0,1,1,237.45,193Z" transform="translate(-83.02 -61.89)"/><path class="a" d="M243.43,200.5v-5h-1.6v-2.22h1.6V190.6H246v2.64h2v2.22h-2v4.36a0.93,0.93,0,0,0,.88,1.06,1.39,1.39,0,0,0,.88-0.28l0.54,1.92a3.14,3.14,0,0,1-2.12.62A2.42,2.42,0,0,1,243.43,200.5Z" transform="translate(-83.02 -61.89)"/><path class="a" d="M186.37,234a5.85,5.85,0,0,0,4.24,1.8c1.56,0,2.32-.74,2.32-1.5,0-1-1.16-1.34-2.7-1.7-2.18-.5-5-1.1-5-4.08,0-2.22,1.92-4,5.06-4a7.42,7.42,0,0,1,5.2,1.86l-1.58,2.08a5.69,5.69,0,0,0-3.82-1.46c-1.28,0-2,.56-2,1.36s1.12,1.18,2.66,1.54c2.2,0.5,5,1.16,5,4.12,0,2.44-1.74,4.28-5.34,4.28a7.61,7.61,0,0,1-5.64-2.12Z" transform="translate(-83.02 -61.89)"/><path class="a" d="M197.05,233.18a5.11,5.11,0,1,1,5.1,5.08A4.89,4.89,0,0,1,197.05,233.18Zm7.58,0a2.49,2.49,0,1,0-2.48,2.82A2.55,2.55,0,0,0,204.63,233.18Z" transform="translate(-83.02 -61.89)"/><path class="a" d="M209.71,230.58h-1.6v-2.22h1.6v-0.52a3.11,3.11,0,0,1,3.26-3.36,4.1,4.1,0,0,1,1.84.4l-0.52,1.8a1.56,1.56,0,0,0-.82-0.2,1.2,1.2,0,0,0-1.2,1.4v0.48h2v2.22h-2V238h-2.56v-7.44Z" transform="translate(-83.02 -61.89)"/><path class="a" d="M216.19,235.62v-5h-1.6v-2.22h1.6v-2.64h2.56v2.64h2v2.22h-2v4.36a0.93,0.93,0,0,0,.88,1.06,1.39,1.39,0,0,0,.88-0.28l0.54,1.92a3.14,3.14,0,0,1-2.12.62A2.42,2.42,0,0,1,216.19,235.62Z" transform="translate(-83.02 -61.89)"/><path class="a" d="M228.89,231.44l-2,6.58h-2.72l-2.94-9.66h2.64l1.8,6.5,2.12-6.5H230l2.12,6.5,1.8-6.5h2.64L233.63,238h-2.7Z" transform="translate(-83.02 -61.89)"/><path class="a" d="M243.63,237a4,4,0,0,1-3.06,1.24,3.22,3.22,0,0,1-3.36-3.2,3.06,3.06,0,0,1,3.36-3.08,3.9,3.9,0,0,1,3.06,1.18v-1.34c0-1-.84-1.62-2.12-1.62a4.07,4.07,0,0,0-2.82,1.14l-1-1.7a6.34,6.34,0,0,1,4.22-1.52c2.2,0,4.22.88,4.22,3.66V238h-2.54v-1Zm0-2.52a2.54,2.54,0,0,0-2-.84,1.48,1.48,0,1,0,0,2.88,2.54,2.54,0,0,0,2-.84v-1.2Z" transform="translate(-83.02 -61.89)"/><path class="a" d="M248.69,228.36h2.54v1.32a4.13,4.13,0,0,1,3.08-1.54v2.48a3.12,3.12,0,0,0-3.08,1V238h-2.54v-9.66Z" transform="translate(-83.02 -61.89)"/><path class="a" d="M260.27,228.12c2.88,0,4.84,2.16,4.84,5.32V234h-7.18a2.6,2.6,0,0,0,2.78,2.24,4,4,0,0,0,2.58-1l1.12,1.64a6,6,0,0,1-4,1.34A5.07,5.07,0,1,1,260.27,228.12Zm-2.38,4.16h4.76a2.24,2.24,0,0,0-2.38-2.14A2.32,2.32,0,0,0,257.89,232.28Z" transform="translate(-83.02 -61.89)"/><path class="a" d="M185.73,244.68H192a4.29,4.29,0,1,1,0,8.56h-3.4V258h-2.84V244.68Zm5.86,2.44h-3v3.68h3A1.84,1.84,0,1,0,191.59,247.12Z" transform="translate(-83.02 -61.89)"/><path class="a" d="M198.15,248.36h2.54v1.32a4.13,4.13,0,0,1,3.08-1.54v2.48a3.12,3.12,0,0,0-3.08,1V258h-2.54v-9.66Z" transform="translate(-83.02 -61.89)"/><path class="a" d="M204.73,253.18a5.11,5.11,0,1,1,5.1,5.08A4.89,4.89,0,0,1,204.73,253.18Zm7.58,0a2.49,2.49,0,1,0-2.48,2.82A2.55,2.55,0,0,0,212.31,253.18Z" transform="translate(-83.02 -61.89)"/><path class="a" d="M219.37,258.28c0,2.2-1.12,3.66-3.44,3.66a5.43,5.43,0,0,1-1.1-.1l0.16-2.08a2.66,2.66,0,0,0,.56.06,1.29,1.29,0,0,0,1.28-1.54v-9.92h2.54v9.92Zm-2.8-12.68a1.52,1.52,0,1,1,1.52,1.52A1.53,1.53,0,0,1,216.57,245.6Z" transform="translate(-83.02 -61.89)"/><path class="a" d="M226.27,248.12c2.88,0,4.84,2.16,4.84,5.32V254h-7.18a2.6,2.6,0,0,0,2.78,2.24,4,4,0,0,0,2.58-1l1.12,1.64a6,6,0,0,1-4,1.34A5.07,5.07,0,1,1,226.27,248.12Zm-2.38,4.16h4.76a2.24,2.24,0,0,0-2.38-2.14A2.32,2.32,0,0,0,223.89,252.28Z" transform="translate(-83.02 -61.89)"/><path class="a" d="M237.45,248.12a4.5,4.5,0,0,1,3.82,1.74l-1.66,1.56a2.34,2.34,0,0,0-2-1,2.82,2.82,0,0,0,0,5.62,2.44,2.44,0,0,0,2-1l1.66,1.54a4.45,4.45,0,0,1-3.82,1.76A5.07,5.07,0,1,1,237.45,248.12Z" transform="translate(-83.02 -61.89)"/><path class="a" d="M243.43,255.62v-5h-1.6v-2.22h1.6v-2.64H246v2.64h2v2.22h-2v4.36a0.93,0.93,0,0,0,.88,1.06,1.39,1.39,0,0,0,.88-0.28l0.54,1.92a3.14,3.14,0,0,1-2.12.62A2.42,2.42,0,0,1,243.43,255.62Z" transform="translate(-83.02 -61.89)"/><path class="a" d="M186.37,290.16a5.85,5.85,0,0,0,4.24,1.8c1.56,0,2.32-.74,2.32-1.5,0-1-1.16-1.34-2.7-1.7-2.18-.5-5-1.1-5-4.08,0-2.22,1.92-4,5.06-4a7.42,7.42,0,0,1,5.2,1.86l-1.58,2.08a5.69,5.69,0,0,0-3.82-1.46c-1.28,0-2,.56-2,1.36s1.12,1.18,2.66,1.54c2.2,0.5,5,1.16,5,4.12,0,2.44-1.74,4.28-5.34,4.28a7.6,7.6,0,0,1-5.64-2.12Z" transform="translate(-83.02 -61.89)"/><path class="a" d="M197.05,289.36a5.11,5.11,0,1,1,5.1,5.08A4.89,4.89,0,0,1,197.05,289.36Zm7.58,0a2.49,2.49,0,1,0-2.48,2.82A2.55,2.55,0,0,0,204.63,289.36Z" transform="translate(-83.02 -61.89)"/><path class="a" d="M209.71,286.76h-1.6v-2.22h1.6V284a3.11,3.11,0,0,1,3.26-3.36,4.1,4.1,0,0,1,1.84.4l-0.52,1.8a1.56,1.56,0,0,0-.82-0.2,1.2,1.2,0,0,0-1.2,1.4v0.48h2v2.22h-2v7.44h-2.56v-7.44Z" transform="translate(-83.02 -61.89)"/><path class="a" d="M216.19,291.8v-5h-1.6v-2.22h1.6V281.9h2.56v2.64h2v2.22h-2v4.36a0.93,0.93,0,0,0,.88,1.06,1.39,1.39,0,0,0,.88-0.28l0.54,1.92a3.14,3.14,0,0,1-2.12.62A2.42,2.42,0,0,1,216.19,291.8Z" transform="translate(-83.02 -61.89)"/><path class="a" d="M228.89,287.62l-2,6.58h-2.72l-2.94-9.66h2.64l1.8,6.5,2.12-6.5H230l2.12,6.5,1.8-6.5h2.64l-2.94,9.66h-2.7Z" transform="translate(-83.02 -61.89)"/><path class="a" d="M243.63,293.2a4,4,0,0,1-3.06,1.24,3.22,3.22,0,0,1-3.36-3.2,3.06,3.06,0,0,1,3.36-3.08,3.9,3.9,0,0,1,3.06,1.18V288c0-1-.84-1.62-2.12-1.62a4.07,4.07,0,0,0-2.82,1.14l-1-1.7A6.34,6.34,0,0,1,242,284.3c2.2,0,4.22.88,4.22,3.66v6.24h-2.54v-1Zm0-2.52a2.54,2.54,0,0,0-2-.84,1.48,1.48,0,1,0,0,2.88,2.54,2.54,0,0,0,2-.84v-1.2Z" transform="translate(-83.02 -61.89)"/><path class="a" d="M248.69,284.54h2.54v1.32a4.13,4.13,0,0,1,3.08-1.54v2.48a3.12,3.12,0,0,0-3.08,1v6.38h-2.54v-9.66Z" transform="translate(-83.02 -61.89)"/><path class="a" d="M260.27,284.3c2.88,0,4.84,2.16,4.84,5.32v0.56h-7.18a2.6,2.6,0,0,0,2.78,2.24,4,4,0,0,0,2.58-1l1.12,1.64a6,6,0,0,1-4,1.34A5.07,5.07,0,1,1,260.27,284.3Zm-2.38,4.16h4.76a2.24,2.24,0,0,0-2.38-2.14A2.32,2.32,0,0,0,257.89,288.46Z" transform="translate(-83.02 -61.89)"/><path class="a" d="M272.13,280.86h6.24a4.29,4.29,0,1,1,0,8.56H275v4.78h-2.84V280.86ZM278,283.3h-3V287h3A1.84,1.84,0,1,0,278,283.3Z" transform="translate(-83.02 -61.89)"/><path class="a" d="M284.55,284.54h2.54v1.32a4.13,4.13,0,0,1,3.08-1.54v2.48a3.12,3.12,0,0,0-3.08,1v6.38h-2.54v-9.66Z" transform="translate(-83.02 -61.89)"/><path class="a" d="M291.13,289.36a5.11,5.11,0,1,1,5.1,5.08A4.89,4.89,0,0,1,291.13,289.36Zm7.58,0a2.49,2.49,0,1,0-2.48,2.82A2.55,2.55,0,0,0,298.71,289.36Z" transform="translate(-83.02 -61.89)"/><path class="a" d="M305.77,294.46c0,2.2-1.12,3.66-3.44,3.66a5.39,5.39,0,0,1-1.1-.1l0.16-2.08a2.66,2.66,0,0,0,.56.06,1.29,1.29,0,0,0,1.28-1.54v-9.92h2.54v9.92ZM303,281.78a1.52,1.52,0,1,1,1.52,1.52A1.53,1.53,0,0,1,303,281.78Z" transform="translate(-83.02 -61.89)"/><path class="a" d="M312.67,284.3c2.88,0,4.84,2.16,4.84,5.32v0.56h-7.18a2.6,2.6,0,0,0,2.78,2.24,4,4,0,0,0,2.58-1l1.12,1.64a6,6,0,0,1-4,1.34A5.07,5.07,0,1,1,312.67,284.3Zm-2.38,4.16H315a2.24,2.24,0,0,0-2.38-2.14A2.32,2.32,0,0,0,310.29,288.46Z" transform="translate(-83.02 -61.89)"/><path class="a" d="M323.85,284.3a4.5,4.5,0,0,1,3.82,1.74L326,287.6a2.34,2.34,0,0,0-2-1,2.82,2.82,0,0,0,0,5.62,2.44,2.44,0,0,0,2-1l1.66,1.54a4.45,4.45,0,0,1-3.82,1.76A5.07,5.07,0,1,1,323.85,284.3Z" transform="translate(-83.02 -61.89)"/><path class="a" d="M329.83,291.8v-5h-1.6v-2.22h1.6V281.9h2.56v2.64h2v2.22h-2v4.36a0.93,0.93,0,0,0,.88,1.06,1.39,1.39,0,0,0,.88-0.28l0.54,1.92a3.14,3.14,0,0,1-2.12.62A2.41,2.41,0,0,1,329.83,291.8Z" transform="translate(-83.02 -61.89)"/><path class="a" d="M341.27,280.86h9.44v2.44h-6.6v2.9h6.46v2.44h-6.46v3.1h6.6v2.46h-9.44V280.86Z" transform="translate(-83.02 -61.89)"/><path class="a" d="M356.65,290.94l-2.22,3.26h-2.82l3.42-5-3.22-4.7h2.84l2,3,2-3h2.84l-3.24,4.7,3.46,5h-2.84Z" transform="translate(-83.02 -61.89)"/><path class="a" d="M362.95,297.88V284.54h2.54v1.22a3.73,3.73,0,0,1,3-1.46c2.48,0,4.28,1.84,4.28,5.06s-1.8,5.08-4.28,5.08a3.69,3.69,0,0,1-3-1.48v4.92h-2.54Zm4.72-11.32a2.84,2.84,0,0,0-2.18,1.1v3.42a2.91,2.91,0,0,0,2.18,1.1c1.46,0,2.44-1.14,2.44-2.82A2.5,2.5,0,0,0,367.67,286.56Z" transform="translate(-83.02 -61.89)"/><path class="a" d="M379,284.3c2.88,0,4.84,2.16,4.84,5.32v0.56h-7.18a2.6,2.6,0,0,0,2.78,2.24,4,4,0,0,0,2.58-1l1.12,1.64a6,6,0,0,1-4,1.34A5.07,5.07,0,1,1,379,284.3Zm-2.38,4.16h4.76a2.24,2.24,0,0,0-2.38-2.14A2.32,2.32,0,0,0,376.65,288.46Z" transform="translate(-83.02 -61.89)"/><path class="a" d="M385.71,284.54h2.54v1.32a4.13,4.13,0,0,1,3.08-1.54v2.48a3.12,3.12,0,0,0-3.08,1v6.38h-2.54v-9.66Z" transform="translate(-83.02 -61.89)"/><path class="a" d="M392.65,281.78a1.52,1.52,0,1,1,1.52,1.52A1.53,1.53,0,0,1,392.65,281.78Zm0.26,2.76h2.54v9.66h-2.54v-9.66Z" transform="translate(-83.02 -61.89)"/><path class="a" d="M402.35,284.3c2.88,0,4.84,2.16,4.84,5.32v0.56H400a2.6,2.6,0,0,0,2.78,2.24,4,4,0,0,0,2.58-1l1.12,1.64a6,6,0,0,1-4,1.34A5.07,5.07,0,1,1,402.35,284.3ZM400,288.46h4.76a2.24,2.24,0,0,0-2.38-2.14A2.32,2.32,0,0,0,400,288.46Z" transform="translate(-83.02 -61.89)"/><path class="a" d="M415.55,288.36a1.57,1.57,0,0,0-1.78-1.8,2.75,2.75,0,0,0-2.2,1.14v6.5H409v-9.66h2.54v1.26a4.42,4.42,0,0,1,3.38-1.5,2.81,2.81,0,0,1,3.14,3.08v6.82h-2.54v-5.84Z" transform="translate(-83.02 -61.89)"/><path class="a" d="M425.11,284.3a4.5,4.5,0,0,1,3.82,1.74l-1.66,1.56a2.34,2.34,0,0,0-2-1,2.82,2.82,0,0,0,0,5.62,2.44,2.44,0,0,0,2-1l1.66,1.54a4.45,4.45,0,0,1-3.82,1.76A5.07,5.07,0,1,1,425.11,284.3Z" transform="translate(-83.02 -61.89)"/><path class="a" d="M435,284.3c2.88,0,4.84,2.16,4.84,5.32v0.56h-7.18a2.6,2.6,0,0,0,2.78,2.24,4,4,0,0,0,2.58-1l1.12,1.64a6,6,0,0,1-4,1.34A5.07,5.07,0,1,1,435,284.3Zm-2.38,4.16h4.76a2.24,2.24,0,0,0-2.38-2.14A2.32,2.32,0,0,0,432.59,288.46Z" transform="translate(-83.02 -61.89)"/><path class="a" d="M453.21,287.62l-2,6.58h-2.72l-2.94-9.66h2.64l1.8,6.5,2.12-6.5h2.26l2.12,6.5,1.8-6.5h2.64l-2.94,9.66h-2.7Z" transform="translate(-83.02 -61.89)"/><path class="a" d="M461.89,281.78a1.52,1.52,0,1,1,1.52,1.52A1.53,1.53,0,0,1,461.89,281.78Zm0.26,2.76h2.54v9.66h-2.54v-9.66Z" transform="translate(-83.02 -61.89)"/><path class="a" d="M467.71,291.8v-5h-1.6v-2.22h1.6V281.9h2.56v2.64h2v2.22h-2v4.36a0.93,0.93,0,0,0,.88,1.06,1.39,1.39,0,0,0,.88-0.28l0.54,1.92a3.14,3.14,0,0,1-2.12.62A2.41,2.41,0,0,1,467.71,291.8Z" transform="translate(-83.02 -61.89)"/><path class="a" d="M480.51,288.32a1.55,1.55,0,0,0-1.8-1.76,2.82,2.82,0,0,0-2.2,1.14v6.5H474V280.86h2.54v4.94a4.47,4.47,0,0,1,3.4-1.5c2.12,0,3.14,1.16,3.14,3v6.86h-2.54v-5.88Z" transform="translate(-83.02 -61.89)"/><path class="a" d="M185.09,307.54a6.75,6.75,0,0,1,7-6.9,6.16,6.16,0,0,1,5.68,3.26l-2.44,1.2a3.65,3.65,0,0,0-3.24-1.94,4.39,4.39,0,0,0,0,8.76,3.62,3.62,0,0,0,3.24-1.94l2.44,1.18a6.19,6.19,0,0,1-5.68,3.28A6.75,6.75,0,0,1,185.09,307.54Z" transform="translate(-83.02 -61.89)"/><path class="a" d="M198.79,309.36a5.11,5.11,0,1,1,5.1,5.08A4.89,4.89,0,0,1,198.79,309.36Zm7.58,0a2.49,2.49,0,1,0-2.48,2.82A2.55,2.55,0,0,0,206.37,309.36Z" transform="translate(-83.02 -61.89)"/><path class="a" d="M210.89,304.54h2.54v1.32a4.13,4.13,0,0,1,3.08-1.54v2.48a3.12,3.12,0,0,0-3.08,1v6.38h-2.54v-9.66Z" transform="translate(-83.02 -61.89)"/><path class="a" d="M218.09,317.88V304.54h2.54v1.22a3.73,3.73,0,0,1,3-1.46c2.48,0,4.28,1.84,4.28,5.06s-1.8,5.08-4.28,5.08a3.69,3.69,0,0,1-3-1.48v4.92h-2.54Zm4.72-11.32a2.84,2.84,0,0,0-2.18,1.1v3.42a2.91,2.91,0,0,0,2.18,1.1c1.46,0,2.44-1.14,2.44-2.82A2.5,2.5,0,0,0,222.81,306.56Z" transform="translate(-83.02 -61.89)"/><path class="a" d="M229.17,309.36a5.11,5.11,0,1,1,5.1,5.08A4.89,4.89,0,0,1,229.17,309.36Zm7.58,0a2.49,2.49,0,1,0-2.48,2.82A2.55,2.55,0,0,0,236.75,309.36Z" transform="translate(-83.02 -61.89)"/><path class="a" d="M241.27,304.54h2.54v1.32a4.13,4.13,0,0,1,3.08-1.54v2.48a3.12,3.12,0,0,0-3.08,1v6.38h-2.54v-9.66Z" transform="translate(-83.02 -61.89)"/><path class="a" d="M254.27,313.2a4,4,0,0,1-3.06,1.24,3.22,3.22,0,0,1-3.36-3.2,3.06,3.06,0,0,1,3.36-3.08,3.9,3.9,0,0,1,3.06,1.18V308c0-1-.84-1.62-2.12-1.62a4.07,4.07,0,0,0-2.82,1.14l-1-1.7a6.34,6.34,0,0,1,4.22-1.52c2.2,0,4.22.88,4.22,3.66v6.24h-2.54v-1Zm0-2.52a2.54,2.54,0,0,0-2-.84,1.48,1.48,0,1,0,0,2.88,2.54,2.54,0,0,0,2-.84v-1.2Z" transform="translate(-83.02 -61.89)"/><path class="a" d="M259.83,311.8v-5h-1.6v-2.22h1.6V301.9h2.56v2.64h2v2.22h-2v4.36a0.93,0.93,0,0,0,.88,1.06,1.39,1.39,0,0,0,.88-0.28l0.54,1.92a3.14,3.14,0,0,1-2.12.62A2.42,2.42,0,0,1,259.83,311.8Z" transform="translate(-83.02 -61.89)"/><path class="a" d="M270.47,304.3c2.88,0,4.84,2.16,4.84,5.32v0.56h-7.18a2.6,2.6,0,0,0,2.78,2.24,4,4,0,0,0,2.58-1l1.12,1.64a6,6,0,0,1-4,1.34A5.07,5.07,0,1,1,270.47,304.3Zm-2.38,4.16h4.76a2.24,2.24,0,0,0-2.38-2.14A2.32,2.32,0,0,0,268.09,308.46Z" transform="translate(-83.02 -61.89)"/><path class="a" d="M282.33,300.86h6.24a4.29,4.29,0,1,1,0,8.56h-3.4v4.78h-2.84V300.86Zm5.86,2.44h-3V307h3A1.84,1.84,0,1,0,288.19,303.3Z" transform="translate(-83.02 -61.89)"/><path class="a" d="M300.15,313.2a4,4,0,0,1-3.06,1.24,3.22,3.22,0,0,1-3.36-3.2,3.06,3.06,0,0,1,3.36-3.08,3.9,3.9,0,0,1,3.06,1.18V308c0-1-.84-1.62-2.12-1.62a4.07,4.07,0,0,0-2.82,1.14l-1-1.7a6.34,6.34,0,0,1,4.22-1.52c2.2,0,4.22.88,4.22,3.66v6.24h-2.54v-1Zm0-2.52a2.54,2.54,0,0,0-2-.84,1.48,1.48,0,1,0,0,2.88,2.54,2.54,0,0,0,2-.84v-1.2Z" transform="translate(-83.02 -61.89)"/><path class="a" d="M305.21,304.54h2.54v1.32a4.13,4.13,0,0,1,3.08-1.54v2.48a3.12,3.12,0,0,0-3.08,1v6.38h-2.54v-9.66Z" transform="translate(-83.02 -61.89)"/><path class="a" d="M312.91,311.8v-5h-1.6v-2.22h1.6V301.9h2.56v2.64h2v2.22h-2v4.36a0.93,0.93,0,0,0,.88,1.06,1.39,1.39,0,0,0,.88-0.28l0.54,1.92a3.14,3.14,0,0,1-2.12.62A2.42,2.42,0,0,1,312.91,311.8Z" transform="translate(-83.02 -61.89)"/><path class="a" d="M325.69,308.36a1.57,1.57,0,0,0-1.78-1.8,2.75,2.75,0,0,0-2.2,1.14v6.5h-2.54v-9.66h2.54v1.26a4.42,4.42,0,0,1,3.38-1.5,2.81,2.81,0,0,1,3.14,3.08v6.82h-2.54v-5.84Z" transform="translate(-83.02 -61.89)"/><path class="a" d="M335.13,304.3c2.88,0,4.84,2.16,4.84,5.32v0.56h-7.18a2.6,2.6,0,0,0,2.78,2.24,4,4,0,0,0,2.58-1l1.12,1.64a6,6,0,0,1-4,1.34A5.07,5.07,0,1,1,335.13,304.3Zm-2.38,4.16h4.76a2.24,2.24,0,0,0-2.38-2.14A2.32,2.32,0,0,0,332.75,308.46Z" transform="translate(-83.02 -61.89)"/><path class="a" d="M341.81,304.54h2.54v1.32a4.14,4.14,0,0,1,3.08-1.54v2.48a3.12,3.12,0,0,0-3.08,1v6.38h-2.54v-9.66Z" transform="translate(-83.02 -61.89)"/><path class="a" d="M349.27,311.16a5.53,5.53,0,0,0,3.34,1.32c1.1,0,1.62-.38,1.62-1s-0.84-.92-1.94-1.14c-1.66-.32-3.8-0.72-3.8-3,0-1.62,1.42-3,4-3a6.17,6.17,0,0,1,3.9,1.32l-1,1.74a4.08,4.08,0,0,0-2.86-1.12c-0.92,0-1.52.34-1.52,0.9s0.76,0.82,1.84,1c1.66,0.32,3.88.76,3.88,3.16,0,1.76-1.5,3.1-4.18,3.1a6.5,6.5,0,0,1-4.32-1.5Z" transform="translate(-83.02 -61.89)"/><path class="a" d="M166.19,66.84h6.15v1.53H168V71h3.68v1.53H168v3h4.49v1.53h-6.3V66.84Z" transform="translate(-83.02 -61.89)"/><path class="a" d="M174.4,66.84h1.86l3.18,5.76,1.06,2.17h0.06c-0.09-1-.23-2.35-0.23-3.49V66.84h1.72V77.07h-1.86L177,71.31,176,69.14h-0.06c0.09,1.08.23,2.31,0.23,3.46v4.47H174.4V66.84Z" transform="translate(-83.02 -61.89)"/><path class="a" d="M188.89,66.65a4.15,4.15,0,0,1,3,1.3l-1,1.13a2.67,2.67,0,0,0-2-.84c-1.81,0-3,1.41-3,3.71S187,75.67,189,75.67a2.24,2.24,0,0,0,1.45-.45V73h-1.92V71.53h3.55V76a5,5,0,0,1-3.3,1.22c-2.72,0-4.79-1.88-4.79-5.27S186.13,66.65,188.89,66.65Z" transform="translate(-83.02 -61.89)"/><path class="a" d="M194.31,66.84h1.81V77.07h-1.81V66.84Z" transform="translate(-83.02 -61.89)"/><path class="a" d="M198.58,66.84h1.86l3.18,5.76,1.06,2.17h0.06c-0.09-1-.23-2.35-0.23-3.49V66.84h1.72V77.07h-1.86l-3.17-5.76-1.06-2.17h-0.06c0.09,1.08.23,2.31,0.23,3.46v4.47h-1.72V66.84Z" transform="translate(-83.02 -61.89)"/><path class="a" d="M208.71,66.84h6.15v1.53h-4.33V71h3.68v1.53h-3.68v3H215v1.53h-6.3V66.84Z" transform="translate(-83.02 -61.89)"/><path class="a" d="M216.92,66.84h6.15v1.53h-4.33V71h3.68v1.53h-3.68v3h4.49v1.53h-6.3V66.84Z" transform="translate(-83.02 -61.89)"/><path class="a" d="M230.7,77.07l-2.21-4h-1.55v4h-1.81V66.84h3.44c2.13,0,3.77.75,3.77,3a2.86,2.86,0,0,1-2,2.92l2.44,4.27h-2Zm-3.75-5.44h1.44c1.41,0,2.16-.59,2.16-1.75s-0.75-1.58-2.16-1.58h-1.44v3.33Z" transform="translate(-83.02 -61.89)"/><path class="a" d="M234.37,66.84h1.81V77.07h-1.81V66.84Z" transform="translate(-83.02 -61.89)"/><path class="a" d="M238.63,66.84h1.86l3.18,5.76,1.06,2.17h0.06c-0.09-1-.23-2.35-0.23-3.49V66.84h1.72V77.07h-1.86l-3.17-5.76-1.06-2.17h-0.06c0.09,1.08.23,2.31,0.23,3.46v4.47h-1.72V66.84Z" transform="translate(-83.02 -61.89)"/><path class="a" d="M253.12,66.65a4.15,4.15,0,0,1,3,1.3l-1,1.13a2.67,2.67,0,0,0-2-.84c-1.81,0-3,1.41-3,3.71s1.09,3.74,3.14,3.74a2.24,2.24,0,0,0,1.45-.45V73h-1.92V71.53h3.55V76a5,5,0,0,1-3.3,1.22c-2.72,0-4.79-1.88-4.79-5.27S250.37,66.65,253.12,66.65Z" transform="translate(-83.02 -61.89)"/><path class="a" d="M86.53,84.06a2.91,2.91,0,0,1,2.15,1l-0.56.64a2.1,2.1,0,0,0-1.57-.73c-1.5,0-2.49,1.22-2.49,3.18S85,91.34,86.5,91.34a2.3,2.3,0,0,0,1.8-.88l0.56,0.61a3,3,0,0,1-2.39,1.14c-2,0-3.45-1.51-3.45-4.08S84.52,84.06,86.53,84.06Z" transform="translate(-83.02 -61.89)"/><path class="a" d="M92.38,86.09a3.08,3.08,0,1,1-2.7,3.07A2.79,2.79,0,0,1,92.38,86.09Zm0,5.3c1,0,1.68-.9,1.68-2.23s-0.67-2.25-1.68-2.25-1.68.91-1.68,2.25S91.38,91.4,92.38,91.4Z" transform="translate(-83.02 -61.89)"/><path class="a" d="M96.55,86.24h0.82l0.08,0.84h0a2.56,2.56,0,0,1,1.81-1,1.53,1.53,0,0,1,1.61,1.12,2.75,2.75,0,0,1,1.92-1.12c1.2,0,1.78.79,1.78,2.28v3.69h-1V88.5c0-1.09-.35-1.56-1.08-1.56a2.14,2.14,0,0,0-1.46.9v4.22h-1V88.5c0-1.09-.35-1.56-1.09-1.56a2.19,2.19,0,0,0-1.46.9v4.22h-1V86.24Z" transform="translate(-83.02 -61.89)"/><path class="a" d="M107.39,92.56v2h-1V86.24h0.82l0.08,0.67h0a3,3,0,0,1,1.86-.82c1.5,0,2.3,1.16,2.3,3,0,2-1.19,3.14-2.52,3.14a2.7,2.7,0,0,1-1.62-.67Zm1.43-1.18c1,0,1.67-.88,1.67-2.31,0-1.28-.43-2.15-1.54-2.15a2.46,2.46,0,0,0-1.56.79v3.06A2.31,2.31,0,0,0,108.81,91.38Z" transform="translate(-83.02 -61.89)"/><path class="a" d="M112.95,86.24h1V89.8c0,1.09.32,1.56,1.09,1.56a2,2,0,0,0,1.57-1V86.24h1v5.83h-0.82l-0.08-.91h0a2.46,2.46,0,0,1-1.92,1.06c-1.24,0-1.79-.79-1.79-2.28V86.24Z" transform="translate(-83.02 -61.89)"/><path class="a" d="M119.64,87h-0.86V86.3l0.91-.06,0.12-1.63h0.83v1.63h1.57V87h-1.57v3.24c0,0.72.23,1.13,0.9,1.13a2.12,2.12,0,0,0,.66-0.16L122.39,92a3.6,3.6,0,0,1-1.08.22c-1.25,0-1.67-.79-1.67-1.94V87Z" transform="translate(-83.02 -61.89)"/><path class="a" d="M125.54,86.09c1.49,0,2.33,1.07,2.33,2.73a3.47,3.47,0,0,1,0,.54h-3.93a1.94,1.94,0,0,0,1.94,2.05,2.64,2.64,0,0,0,1.45-.46l0.35,0.65a3.47,3.47,0,0,1-1.92.6A3.08,3.08,0,0,1,125.54,86.09ZM127,88.72c0-1.19-.53-1.85-1.44-1.85a1.82,1.82,0,0,0-1.68,1.85H127Z" transform="translate(-83.02 -61.89)"/><path class="a" d="M129.29,86.24h0.82l0.08,1.06h0a2,2,0,0,1,1.66-1.2,1.45,1.45,0,0,1,.62.12l-0.19.86a1.63,1.63,0,0,0-.56-0.1,1.76,1.76,0,0,0-1.48,1.34v3.74h-1V86.24Z" transform="translate(-83.02 -61.89)"/><path class="a" d="M136,90.35a3.06,3.06,0,0,0,2.17,1,1.39,1.39,0,0,0,1.64-1.28c0-.8-0.58-1.06-1.32-1.39l-1.13-.49a2.11,2.11,0,0,1,.89-4.11,3.22,3.22,0,0,1,2.31,1l-0.53.65a2.53,2.53,0,0,0-1.79-.74,1.26,1.26,0,0,0-1.48,1.15,1.61,1.61,0,0,0,1.31,1.31l1.13,0.48a2.19,2.19,0,0,1,1.62,2.1c0,1.25-1,2.24-2.69,2.24A3.79,3.79,0,0,1,135.38,91Z" transform="translate(-83.02 -61.89)"/><path class="a" d="M144.67,86.09a2.4,2.4,0,0,1,1.7.7l-0.49.64a1.76,1.76,0,0,0-1.18-.52,2,2,0,0,0-1.82,2.25c0,1.33.73,2.23,1.8,2.23a2.08,2.08,0,0,0,1.37-.59l0.44,0.65a2.89,2.89,0,0,1-1.9.76,2.74,2.74,0,0,1-2.73-3A2.82,2.82,0,0,1,144.67,86.09Z" transform="translate(-83.02 -61.89)"/><path class="a" d="M147.51,84.4a0.69,0.69,0,0,1,1.37,0A0.69,0.69,0,0,1,147.51,84.4Zm0.18,1.83h1v5.83h-1V86.24Z" transform="translate(-83.02 -61.89)"/><path class="a" d="M152.72,86.09c1.49,0,2.33,1.07,2.33,2.73a3.47,3.47,0,0,1,0,.54h-3.93A1.94,1.94,0,0,0,153,91.42a2.64,2.64,0,0,0,1.45-.46l0.35,0.65a3.47,3.47,0,0,1-1.92.6A3.08,3.08,0,0,1,152.72,86.09Zm1.46,2.63c0-1.19-.53-1.85-1.44-1.85a1.82,1.82,0,0,0-1.68,1.85h3.12Z" transform="translate(-83.02 -61.89)"/><path class="a" d="M156.48,86.24h0.82l0.08,0.84h0a2.75,2.75,0,0,1,2-1c1.22,0,1.77.79,1.77,2.28v3.69h-1V88.5c0-1.09-.34-1.56-1.1-1.56a2.23,2.23,0,0,0-1.6.9v4.22h-1V86.24Z" transform="translate(-83.02 -61.89)"/><path class="a" d="M165.37,86.09a2.4,2.4,0,0,1,1.7.7l-0.49.64a1.76,1.76,0,0,0-1.18-.52,2,2,0,0,0-1.82,2.25c0,1.33.73,2.23,1.8,2.23a2.08,2.08,0,0,0,1.37-.59l0.44,0.65a2.89,2.89,0,0,1-1.9.76,2.74,2.74,0,0,1-2.73-3A2.82,2.82,0,0,1,165.37,86.09Z" transform="translate(-83.02 -61.89)"/><path class="a" d="M170.46,86.09c1.49,0,2.33,1.07,2.33,2.73a3.47,3.47,0,0,1,0,.54h-3.93a1.94,1.94,0,0,0,1.94,2.05,2.64,2.64,0,0,0,1.45-.46l0.35,0.65a3.47,3.47,0,0,1-1.92.6A3.08,3.08,0,0,1,170.46,86.09Zm1.46,2.63c0-1.19-.53-1.85-1.44-1.85a1.82,1.82,0,0,0-1.68,1.85h3.12Z" transform="translate(-83.02 -61.89)"/><path class="a" d="M102.56,77a2.45,2.45,0,0,1-2.78-2.56,2.54,2.54,0,0,1,1.83-2.56c1.7-.62,2.06-0.7,3.23-1.06V70.5a2.73,2.73,0,0,0-.11-1.06A1.72,1.72,0,0,0,103,68.35a2.09,2.09,0,0,0-1.92,1.18l-0.48-.28a3.17,3.17,0,0,1,3.26-2.15,2.94,2.94,0,0,1,2.73,1.19,4.74,4.74,0,0,1,.44,2.47c0,0.82,0,1.73,0,2.47,0,0.51,0,.94,0,1.22,0,0.67.11,1.19,0.67,1.19a0.6,0.6,0,0,0,.47-0.22l0.31,0.35a2.44,2.44,0,0,1-2,1.2,1.38,1.38,0,0,1-1.45-1A3.22,3.22,0,0,1,102.56,77Zm2.28-5a10.5,10.5,0,0,0-2.09.79,1.57,1.57,0,0,0-.83,1.49,1.27,1.27,0,0,0,1.42,1.38,2.59,2.59,0,0,0,1.5-.44V72ZM83.5,76.47c0-1,0-1.77-.07-2.75H84a2,2,0,0,0,.44,1.35,3.19,3.19,0,0,0,2.21.73c1.81,0,2.66-.69,2.66-2.16,0-1.26-.78-1.79-1.86-2.52L87.27,71l-1.14-.76c-1.59-1-2.4-1.89-2.4-3.57,0-.82.31-3.5,4.3-3.5a19.88,19.88,0,0,1,3.13.25c0,0.13,0,.74,0,1.26s0,0.8,0,1.53H90.69a1.85,1.85,0,0,0-.47-1.34,3.28,3.28,0,0,0-2.13-.56c-2.11,0-2.36,1.08-2.36,1.9,0,1.12.57,1.5,1.83,2.33l1.45,1c1.23,0.82,2.39,1.59,2.39,3.63,0,3.45-3.22,3.82-4.6,3.82A9.93,9.93,0,0,1,83.5,76.47Zm25.73-8.73a8.55,8.55,0,0,0,1.92-.13,3.65,3.65,0,0,0,1.27-.41l0.19,0.11v0.76a4.68,4.68,0,0,1,2.76-.92,2.88,2.88,0,0,1,3.15,2.26,9.92,9.92,0,0,1,.13,1.7v2.78c0,1.57.06,2,.36,2.29a1.51,1.51,0,0,0,.92.28v0.45c-0.61,0-1.7-.09-2.36-0.09-0.87,0-1.85,0-2.38.1V76.46a1.66,1.66,0,0,0,1-.35c0.28-.28.32-0.83,0.36-2,0-.35,0-1.1,0-1.65a19.55,19.55,0,0,0-.08-2.18,1.8,1.8,0,0,0-2-1.8,3.71,3.71,0,0,0-1.79.4v5c0,1.57.06,2,.36,2.29a1.51,1.51,0,0,0,.92.28v0.45c-0.79,0-1.73-.09-2.34-0.09a18.82,18.82,0,0,0-2.4.1V76.45a1.42,1.42,0,0,0,1-.41c0.29-.33.31-1.14,0.31-2.76V70.56a4.38,4.38,0,0,0-.19-1.93,1.26,1.26,0,0,0-1.11-.35V67.74Zm11.83,8.7a1.4,1.4,0,0,0,1-.4c0.3-.33.31-1.13,0.31-2.75V68.56h-1.24V68a5.28,5.28,0,0,0,1.24-.64,16.7,16.7,0,0,1,.14-2.52c0.37-2,1.66-3,3.81-3a3.82,3.82,0,0,1,2.4.79l0,0.2-0.95,1.31h-0.23A1.68,1.68,0,0,0,126,63a1.44,1.44,0,0,0-1,.34c-0.41.41-.48,1-0.48,2.24v1.84h2.13v1.18h-2.13v5.28a5.14,5.14,0,0,0,.21,2.11,2,2,0,0,0,1.51.43v0.5c-0.7,0-1.79-.09-2.6-0.09a24.31,24.31,0,0,0-2.59.1V76.44Zm11,0.63c-2.91,0-4.64-1.81-4.64-4.84,0-2.36,1.27-5.1,4.84-5.1,2.91,0,4.64,1.81,4.64,4.84C136.86,74.31,135.59,77.07,132,77.07Zm0.12-8.85a2,2,0,0,0-1.35.43,4.37,4.37,0,0,0-1.15,3.47c0,0.64.12,3.84,2.46,3.84a2,2,0,0,0,1.34-.43c0.77-.64,1.16-1.81,1.16-3.47C134.6,71.42,134.48,68.22,132.14,68.22Zm5.68-.52a9.14,9.14,0,0,0,2.08-.17,4.69,4.69,0,0,0,1.13-.32l0.17,0.08v0.83a3.15,3.15,0,0,1,2.2-.88,2.28,2.28,0,0,1,1.66.59v0.3l-0.8,1.47h-0.39a1.7,1.7,0,0,0-1.59-.86,1.8,1.8,0,0,0-1,.3v4.8a5,5,0,0,0,.21,2.09,1.89,1.89,0,0,0,1.51.43v0.53c-0.65,0-1.78-.09-2.59-0.09a24.09,24.09,0,0,0-2.59.1V76.42a1.36,1.36,0,0,0,1-.4c0.3-.33.31-1.11,0.31-2.73V70.56a4.18,4.18,0,0,0-.19-1.93,1.36,1.36,0,0,0-1.12-.35V67.7Zm13.4-5.26a14.05,14.05,0,0,0,2.24-.27,6,6,0,0,0,1-.25l0.17,0.1c-0.08.79-.08,2.56-0.08,3.81V73.6a5.52,5.52,0,0,0,.19,2.11,1.29,1.29,0,0,0,1.1.36v0.51a13.2,13.2,0,0,0-2,.2,4.08,4.08,0,0,0-1.06.26L152.49,77v-0.8a4.51,4.51,0,0,1-2.66.9c-2.61,0-4.3-1.81-4.3-4.62a6.39,6.39,0,0,1,.51-2.57,4.77,4.77,0,0,1,4.55-2.72,9.43,9.43,0,0,1,1.86.18v-2a5.07,5.07,0,0,0-.19-2.07,1.18,1.18,0,0,0-1-.34V62.45Zm-0.33,13.23a2.8,2.8,0,0,0,1.57-.38V68.92a2.66,2.66,0,0,0-1.9-.64c-1.85,0-2.75,1.27-2.75,3.88C147.8,73.26,148.13,75.68,150.89,75.68ZM98.82,76A3.15,3.15,0,0,1,96.24,77c-1.47,0-2.29-.52-2.65-1.7a8.22,8.22,0,0,1-.15-1.94c0-1.52,0-2.75,0-4.16V68.57H92.22V68.2a4.58,4.58,0,0,0,1.19-.66,7,7,0,0,0,1.77-2.29H95.6v2.14h3.23v1.18H95.6v5c0,1.5.27,2.35,1.68,2.35a2.77,2.77,0,0,0,1.37-.36Z" transform="translate(-83.02 -61.89)"/><line class="c" x1="77.31" y1="0.04" x2="77.31" y2="15.17"/></svg>